<svg width="80" height="80" viewBox="0 0 80 80" fill="none" xmlns="http://www.w3.org/2000/svg">
<mask id="mask0" mask-type="alpha" maskUnits="userSpaceOnUse" x="0" y="0" width="80" height="80">
<circle cx="40" cy="40" r="40" fill="#C4C4C4"/>
</mask>
<g mask="url(#mask0)">
<circle cx="-0.5" cy="-0.5" r="1" fill="#2980B9"/>
<circle cx="-0.5" cy="41.5" r="1" fill="#2980B9"/>
<circle cx="41.5" cy="-0.5" r="1" fill="#2980B9"/>
<circle cx="41.5" cy="41.5" r="1" fill="#2980B9"/>
<circle cx="11.5" cy="-0.5" r="1" fill="#2980B9"/>
<circle cx="11.5" cy="41.5" r="1" fill="#2980B9"/>
<circle cx="53.5" cy="-0.5" r="1" fill="#2980B9"/>
<circle cx="53.5" cy="41.5" r="1" fill="#2980B9"/>
<circle cx="23.5" cy="-0.5" r="1" fill="#2980B9"/>
<circle cx="23.5" cy="41.5" r="1" fill="#2980B9"/>
<circle cx="65.5" cy="-0.5" r="1" fill="#2980B9"/>
<circle cx="65.5" cy="41.5" r="1" fill="#2980B9"/>
<circle cx="38.5" cy="-0.5" r="1" fill="#2980B9"/>
<circle cx="38.5" cy="41.5" r="1" fill="#2980B9"/>
<circle cx="80.5" cy="-0.5" r="1" fill="#2980B9"/>
<circle cx="80.5" cy="41.5" r="1" fill="#2980B9"/>
<circle cx="-0.5" cy="11.5" r="1" fill="#2980B9"/>
<circle cx="-0.5" cy="53.5" r="1" fill="#2980B9"/>
<circle cx="41.5" cy="11.5" r="1" fill="#2980B9"/>
<circle cx="41.5" cy="53.5" r="1" fill="#2980B9"/>
<circle cx="-0.5" cy="23.5" r="1" fill="#2980B9"/>
<circle cx="-0.5" cy="65.5" r="1" fill="#2980B9"/>
<circle cx="41.5" cy="23.5" r="1" fill="#2980B9"/>
<circle cx="41.5" cy="65.5" r="1" fill="#2980B9"/>
<circle cx="-0.5" cy="35.5" r="1" fill="#2980B9"/>
<circle cx="-0.5" cy="77.5" r="1" fill="#2980B9"/>
<circle cx="41.5" cy="35.5" r="1" fill="#2980B9"/>
<circle cx="41.5" cy="77.5" r="1" fill="#2980B9"/>
<circle cx="11.5" cy="11.5" r="1" fill="#2980B9"/>
<circle cx="11.5" cy="53.5" r="1" fill="#2980B9"/>
<circle cx="53.5" cy="11.5" r="1" fill="#2980B9"/>
<circle cx="53.5" cy="53.5" r="1" fill="#2980B9"/>
<circle cx="11.5" cy="23.5" r="1" fill="#2980B9"/>
<circle cx="11.5" cy="65.5" r="1" fill="#2980B9"/>
<circle cx="53.5" cy="23.5" r="1" fill="#2980B9"/>
<circle cx="53.5" cy="65.5" r="1" fill="#2980B9"/>
<circle cx="11.5" cy="35.5" r="1" fill="#2980B9"/>
<circle cx="11.5" cy="77.5" r="1" fill="#2980B9"/>
<circle cx="53.5" cy="35.5" r="1" fill="#2980B9"/>
<circle cx="53.5" cy="77.5" r="1" fill="#2980B9"/>
<circle cx="23.5" cy="11.5" r="1" fill="#2980B9"/>
<circle cx="23.5" cy="53.5" r="1" fill="#2980B9"/>
<circle cx="65.5" cy="11.5" r="1" fill="#2980B9"/>
<circle cx="65.5" cy="53.5" r="1" fill="#2980B9"/>
<circle cx="38.5" cy="11.5" r="1" fill="#2980B9"/>
<circle cx="38.5" cy="53.5" r="1" fill="#2980B9"/>
<circle cx="80.5" cy="11.5" r="1" fill="#2980B9"/>
<circle cx="80.5" cy="53.5" r="1" fill="#2980B9"/>
<circle cx="23.5" cy="23.5" r="1" fill="#2980B9"/>
<circle cx="23.5" cy="65.5" r="1" fill="#2980B9"/>
<circle cx="65.5" cy="23.5" r="1" fill="#2980B9"/>
<circle cx="65.5" cy="65.5" r="1" fill="#2980B9"/>
<circle cx="23.5" cy="35.5" r="1" fill="#2980B9"/>
<circle cx="23.5" cy="77.5" r="1" fill="#2980B9"/>
<circle cx="65.5" cy="35.5" r="1" fill="#2980B9"/>
<circle cx="65.5" cy="77.5" r="1" fill="#2980B9"/>
<circle cx="38.5" cy="23.5" r="1" fill="#2980B9"/>
<circle cx="38.5" cy="65.5" r="1" fill="#2980B9"/>
<circle cx="80.5" cy="23.5" r="1" fill="#2980B9"/>
<circle cx="80.5" cy="65.5" r="1" fill="#2980B9"/>
<circle cx="38.5" cy="35.5" r="1" fill="#2980B9"/>
<circle cx="38.5" cy="77.5" r="1" fill="#2980B9"/>
<circle cx="80.5" cy="35.5" r="1" fill="#2980B9"/>
<circle cx="80.5" cy="77.5" r="1" fill="#2980B9"/>
<circle cx="5.5" cy="-0.5" r="1" fill="#2980B9"/>
<circle cx="5.5" cy="41.5" r="1" fill="#2980B9"/>
<circle cx="47.5" cy="-0.5" r="1" fill="#2980B9"/>
<circle cx="47.5" cy="41.5" r="1" fill="#2980B9"/>
<circle cx="17.5" cy="-0.5" r="1" fill="#2980B9"/>
<circle cx="17.5" cy="41.5" r="1" fill="#2980B9"/>
<circle cx="59.5" cy="-0.5" r="1" fill="#2980B9"/>
<circle cx="59.5" cy="41.5" r="1" fill="#2980B9"/>
<circle cx="32.5" cy="-0.5" r="1" fill="#2980B9"/>
<circle cx="32.5" cy="41.5" r="1" fill="#2980B9"/>
<circle cx="74.5" cy="-0.5" r="1" fill="#2980B9"/>
<circle cx="74.5" cy="41.5" r="1" fill="#2980B9"/>
<circle cx="5.5" cy="11.5" r="1" fill="#2980B9"/>
<circle cx="5.5" cy="53.5" r="1" fill="#2980B9"/>
<circle cx="47.5" cy="11.5" r="1" fill="#2980B9"/>
<circle cx="47.5" cy="53.5" r="1" fill="#2980B9"/>
<circle cx="5.5" cy="23.5" r="1" fill="#2980B9"/>
<circle cx="5.5" cy="65.5" r="1" fill="#2980B9"/>
<circle cx="47.5" cy="23.5" r="1" fill="#2980B9"/>
<circle cx="47.5" cy="65.5" r="1" fill="#2980B9"/>
<circle cx="5.5" cy="35.5" r="1" fill="#2980B9"/>
<circle cx="5.5" cy="77.5" r="1" fill="#2980B9"/>
<circle cx="47.5" cy="35.5" r="1" fill="#2980B9"/>
<circle cx="47.5" cy="77.5" r="1" fill="#2980B9"/>
<circle cx="17.5" cy="11.5" r="1" fill="#2980B9"/>
<circle cx="17.5" cy="53.5" r="1" fill="#2980B9"/>
<circle cx="59.5" cy="11.5" r="1" fill="#2980B9"/>
<circle cx="59.5" cy="53.5" r="1" fill="#2980B9"/>
<circle cx="32.5" cy="11.5" r="1" fill="#2980B9"/>
<circle cx="32.5" cy="53.5" r="1" fill="#2980B9"/>
<circle cx="74.5" cy="11.5" r="1" fill="#2980B9"/>
<circle cx="74.5" cy="53.5" r="1" fill="#2980B9"/>
<circle cx="17.5" cy="23.5" r="1" fill="#2980B9"/>
<circle cx="17.5" cy="65.5" r="1" fill="#2980B9"/>
<circle cx="59.5" cy="23.5" r="1" fill="#2980B9"/>
<circle cx="59.5" cy="65.5" r="1" fill="#2980B9"/>
<circle cx="17.5" cy="35.5" r="1" fill="#2980B9"/>
<circle cx="17.5" cy="77.5" r="1" fill="#2980B9"/>
<circle cx="59.5" cy="35.5" r="1" fill="#2980B9"/>
<circle cx="59.5" cy="77.5" r="1" fill="#2980B9"/>
<circle cx="32.5" cy="23.5" r="1" fill="#2980B9"/>
<circle cx="32.5" cy="65.5" r="1" fill="#2980B9"/>
<circle cx="74.5" cy="23.5" r="1" fill="#2980B9"/>
<circle cx="74.5" cy="65.5" r="1" fill="#2980B9"/>
<circle cx="32.5" cy="35.5" r="1" fill="#2980B9"/>
<circle cx="32.5" cy="77.5" r="1" fill="#2980B9"/>
<circle cx="74.5" cy="35.5" r="1" fill="#2980B9"/>
<circle cx="74.5" cy="77.5" r="1" fill="#2980B9"/>
<circle cx="2.5" cy="-0.5" r="1" fill="#2980B9"/>
<circle cx="2.5" cy="41.5" r="1" fill="#2980B9"/>
<circle cx="44.5" cy="-0.5" r="1" fill="#2980B9"/>
<circle cx="44.5" cy="41.5" r="1" fill="#2980B9"/>
<circle cx="14.5" cy="-0.5" r="1" fill="#2980B9"/>
<circle cx="14.5" cy="41.5" r="1" fill="#2980B9"/>
<circle cx="56.5" cy="-0.5" r="1" fill="#2980B9"/>
<circle cx="56.5" cy="41.5" r="1" fill="#2980B9"/>
<circle cx="29.5" cy="-0.5" r="1" fill="#2980B9"/>
<circle cx="29.5" cy="41.5" r="1" fill="#2980B9"/>
<circle cx="71.5" cy="-0.5" r="1" fill="#2980B9"/>
<circle cx="71.5" cy="41.5" r="1" fill="#2980B9"/>
<circle cx="26.5" cy="-0.5" r="1" fill="#2980B9"/>
<circle cx="26.5" cy="41.5" r="1" fill="#2980B9"/>
<circle cx="68.5" cy="-0.5" r="1" fill="#2980B9"/>
<circle cx="68.5" cy="41.5" r="1" fill="#2980B9"/>
<circle cx="2.5" cy="11.5" r="1" fill="#2980B9"/>
<circle cx="2.5" cy="53.5" r="1" fill="#2980B9"/>
<circle cx="44.5" cy="11.5" r="1" fill="#2980B9"/>
<circle cx="44.5" cy="53.5" r="1" fill="#2980B9"/>
<circle cx="2.5" cy="23.5" r="1" fill="#2980B9"/>
<circle cx="2.5" cy="65.5" r="1" fill="#2980B9"/>
<circle cx="44.5" cy="23.5" r="1" fill="#2980B9"/>
<circle cx="44.5" cy="65.5" r="1" fill="#2980B9"/>
<circle cx="2.5" cy="35.5" r="1" fill="#2980B9"/>
<circle cx="2.5" cy="77.5" r="1" fill="#2980B9"/>
<circle cx="44.5" cy="35.5" r="1" fill="#2980B9"/>
<circle cx="44.5" cy="77.5" r="1" fill="#2980B9"/>
<circle cx="14.5" cy="11.5" r="1" fill="#2980B9"/>
<circle cx="14.5" cy="53.5" r="1" fill="#2980B9"/>
<circle cx="56.5" cy="11.5" r="1" fill="#2980B9"/>
<circle cx="56.5" cy="53.5" r="1" fill="#2980B9"/>
<circle cx="29.5" cy="11.5" r="1" fill="#2980B9"/>
<circle cx="29.5" cy="53.5" r="1" fill="#2980B9"/>
<circle cx="71.5" cy="11.5" r="1" fill="#2980B9"/>
<circle cx="71.5" cy="53.5" r="1" fill="#2980B9"/>
<circle cx="14.5" cy="23.5" r="1" fill="#2980B9"/>
<circle cx="14.5" cy="65.5" r="1" fill="#2980B9"/>
<circle cx="56.5" cy="23.5" r="1" fill="#2980B9"/>
<circle cx="56.5" cy="65.5" r="1" fill="#2980B9"/>
<circle cx="14.5" cy="35.5" r="1" fill="#2980B9"/>
<circle cx="14.5" cy="77.5" r="1" fill="#2980B9"/>
<circle cx="56.5" cy="35.5" r="1" fill="#2980B9"/>
<circle cx="56.5" cy="77.5" r="1" fill="#2980B9"/>
<circle cx="29.5" cy="23.5" r="1" fill="#2980B9"/>
<circle cx="29.5" cy="65.5" r="1" fill="#2980B9"/>
<circle cx="71.5" cy="23.5" r="1" fill="#2980B9"/>
<circle cx="71.5" cy="65.5" r="1" fill="#2980B9"/>
<circle cx="29.5" cy="35.5" r="1" fill="#2980B9"/>
<circle cx="29.5" cy="77.5" r="1" fill="#2980B9"/>
<circle cx="71.5" cy="35.5" r="1" fill="#2980B9"/>
<circle cx="71.5" cy="77.5" r="1" fill="#2980B9"/>
<circle cx="26.5" cy="11.5" r="1" fill="#2980B9"/>
<circle cx="26.5" cy="53.5" r="1" fill="#2980B9"/>
<circle cx="68.5" cy="11.5" r="1" fill="#2980B9"/>
<circle cx="68.5" cy="53.5" r="1" fill="#2980B9"/>
<circle cx="26.5" cy="23.5" r="1" fill="#2980B9"/>
<circle cx="26.5" cy="65.5" r="1" fill="#2980B9"/>
<circle cx="68.5" cy="23.5" r="1" fill="#2980B9"/>
<circle cx="68.5" cy="65.5" r="1" fill="#2980B9"/>
<circle cx="26.5" cy="35.5" r="1" fill="#2980B9"/>
<circle cx="26.5" cy="77.5" r="1" fill="#2980B9"/>
<circle cx="68.5" cy="35.5" r="1" fill="#2980B9"/>
<circle cx="68.5" cy="77.5" r="1" fill="#2980B9"/>
<circle cx="8.5" cy="-0.5" r="1" fill="#2980B9"/>
<circle cx="8.5" cy="41.5" r="1" fill="#2980B9"/>
<circle cx="50.5" cy="-0.5" r="1" fill="#2980B9"/>
<circle cx="50.5" cy="41.5" r="1" fill="#2980B9"/>
<circle cx="20.5" cy="-0.5" r="1" fill="#2980B9"/>
<circle cx="20.5" cy="41.5" r="1" fill="#2980B9"/>
<circle cx="62.5" cy="-0.5" r="1" fill="#2980B9"/>
<circle cx="62.5" cy="41.5" r="1" fill="#2980B9"/>
<circle cx="35.5" cy="-0.5" r="1" fill="#2980B9"/>
<circle cx="35.5" cy="41.5" r="1" fill="#2980B9"/>
<circle cx="77.5" cy="-0.5" r="1" fill="#2980B9"/>
<circle cx="77.5" cy="41.5" r="1" fill="#2980B9"/>
<circle cx="8.5" cy="11.5" r="1" fill="#2980B9"/>
<circle cx="8.5" cy="53.5" r="1" fill="#2980B9"/>
<circle cx="50.5" cy="11.5" r="1" fill="#2980B9"/>
<circle cx="50.5" cy="53.5" r="1" fill="#2980B9"/>
<circle cx="8.5" cy="23.5" r="1" fill="#2980B9"/>
<circle cx="8.5" cy="65.5" r="1" fill="#2980B9"/>
<circle cx="50.5" cy="23.5" r="1" fill="#2980B9"/>
<circle cx="50.5" cy="65.5" r="1" fill="#2980B9"/>
<circle cx="8.5" cy="35.5" r="1" fill="#2980B9"/>
<circle cx="8.5" cy="77.5" r="1" fill="#2980B9"/>
<circle cx="50.5" cy="35.5" r="1" fill="#2980B9"/>
<circle cx="50.5" cy="77.5" r="1" fill="#2980B9"/>
<circle cx="20.5" cy="11.5" r="1" fill="#2980B9"/>
<circle cx="20.5" cy="53.5" r="1" fill="#2980B9"/>
<circle cx="62.5" cy="11.5" r="1" fill="#2980B9"/>
<circle cx="62.5" cy="53.5" r="1" fill="#2980B9"/>
<circle cx="35.5" cy="11.5" r="1" fill="#2980B9"/>
<circle cx="35.5" cy="53.5" r="1" fill="#2980B9"/>
<circle cx="77.5" cy="11.5" r="1" fill="#2980B9"/>
<circle cx="77.5" cy="53.5" r="1" fill="#2980B9"/>
<circle cx="20.5" cy="23.5" r="1" fill="#2980B9"/>
<circle cx="20.5" cy="65.5" r="1" fill="#2980B9"/>
<circle cx="62.5" cy="23.5" r="1" fill="#2980B9"/>
<circle cx="62.5" cy="65.5" r="1" fill="#2980B9"/>
<circle cx="20.5" cy="35.5" r="1" fill="#2980B9"/>
<circle cx="20.5" cy="77.5" r="1" fill="#2980B9"/>
<circle cx="62.5" cy="35.5" r="1" fill="#2980B9"/>
<circle cx="62.5" cy="77.5" r="1" fill="#2980B9"/>
<circle cx="35.5" cy="23.5" r="1" fill="#2980B9"/>
<circle cx="35.5" cy="65.5" r="1" fill="#2980B9"/>
<circle cx="77.5" cy="23.5" r="1" fill="#2980B9"/>
<circle cx="77.5" cy="65.5" r="1" fill="#2980B9"/>
<circle cx="35.5" cy="35.5" r="1" fill="#2980B9"/>
<circle cx="35.5" cy="77.5" r="1" fill="#2980B9"/>
<circle cx="77.5" cy="35.5" r="1" fill="#2980B9"/>
<circle cx="77.5" cy="77.5" r="1" fill="#2980B9"/>
<circle cx="-0.5" cy="2.5" r="1" fill="#2980B9"/>
<circle cx="-0.5" cy="44.5" r="1" fill="#2980B9"/>
<circle cx="41.5" cy="2.5" r="1" fill="#2980B9"/>
<circle cx="41.5" cy="44.5" r="1" fill="#2980B9"/>
<circle cx="11.5" cy="2.5" r="1" fill="#2980B9"/>
<circle cx="11.5" cy="44.5" r="1" fill="#2980B9"/>
<circle cx="53.5" cy="2.5" r="1" fill="#2980B9"/>
<circle cx="53.5" cy="44.5" r="1" fill="#2980B9"/>
<circle cx="23.5" cy="2.5" r="1" fill="#2980B9"/>
<circle cx="23.5" cy="44.5" r="1" fill="#2980B9"/>
<circle cx="65.5" cy="2.5" r="1" fill="#2980B9"/>
<circle cx="65.5" cy="44.5" r="1" fill="#2980B9"/>
<circle cx="38.5" cy="2.5" r="1" fill="#2980B9"/>
<circle cx="38.5" cy="44.5" r="1" fill="#2980B9"/>
<circle cx="80.5" cy="2.5" r="1" fill="#2980B9"/>
<circle cx="80.5" cy="44.5" r="1" fill="#2980B9"/>
<circle cx="-0.5" cy="14.5" r="1" fill="#2980B9"/>
<circle cx="-0.5" cy="56.5" r="1" fill="#2980B9"/>
<circle cx="41.5" cy="14.5" r="1" fill="#2980B9"/>
<circle cx="41.5" cy="56.5" r="1" fill="#2980B9"/>
<circle cx="-0.5" cy="26.5" r="1" fill="#2980B9"/>
<circle cx="-0.5" cy="68.5" r="1" fill="#2980B9"/>
<circle cx="41.5" cy="26.5" r="1" fill="#2980B9"/>
<circle cx="41.5" cy="68.5" r="1" fill="#2980B9"/>
<circle cx="-0.5" cy="38.5" r="1" fill="#2980B9"/>
<circle cx="-0.5" cy="80.5" r="1" fill="#2980B9"/>
<circle cx="41.5" cy="38.5" r="1" fill="#2980B9"/>
<circle cx="41.5" cy="80.5" r="1" fill="#2980B9"/>
<circle cx="11.5" cy="14.5" r="1" fill="#2980B9"/>
<circle cx="11.5" cy="56.5" r="1" fill="#2980B9"/>
<circle cx="53.5" cy="14.5" r="1" fill="#2980B9"/>
<circle cx="53.5" cy="56.5" r="1" fill="#2980B9"/>
<circle cx="11.5" cy="26.5" r="1" fill="#2980B9"/>
<circle cx="11.5" cy="68.5" r="1" fill="#2980B9"/>
<circle cx="53.5" cy="26.5" r="1" fill="#2980B9"/>
<circle cx="53.5" cy="68.5" r="1" fill="#2980B9"/>
<circle cx="11.5" cy="38.5" r="1" fill="#2980B9"/>
<circle cx="11.5" cy="80.5" r="1" fill="#2980B9"/>
<circle cx="53.5" cy="38.5" r="1" fill="#2980B9"/>
<circle cx="53.5" cy="80.5" r="1" fill="#2980B9"/>
<circle cx="23.5" cy="14.5" r="1" fill="#2980B9"/>
<circle cx="23.5" cy="56.5" r="1" fill="#2980B9"/>
<circle cx="65.5" cy="14.5" r="1" fill="#2980B9"/>
<circle cx="65.5" cy="56.5" r="1" fill="#2980B9"/>
<circle cx="38.5" cy="14.5" r="1" fill="#2980B9"/>
<circle cx="38.5" cy="56.5" r="1" fill="#2980B9"/>
<circle cx="80.5" cy="14.5" r="1" fill="#2980B9"/>
<circle cx="80.5" cy="56.5" r="1" fill="#2980B9"/>
<circle cx="23.5" cy="26.5" r="1" fill="#2980B9"/>
<circle cx="23.5" cy="68.5" r="1" fill="#2980B9"/>
<circle cx="65.5" cy="26.5" r="1" fill="#2980B9"/>
<circle cx="65.5" cy="68.5" r="1" fill="#2980B9"/>
<circle cx="23.5" cy="38.5" r="1" fill="#2980B9"/>
<circle cx="23.5" cy="80.5" r="1" fill="#2980B9"/>
<circle cx="65.5" cy="38.5" r="1" fill="#2980B9"/>
<circle cx="65.5" cy="80.5" r="1" fill="#2980B9"/>
<circle cx="38.5" cy="26.5" r="1" fill="#2980B9"/>
<circle cx="38.5" cy="68.5" r="1" fill="#2980B9"/>
<circle cx="80.5" cy="26.5" r="1" fill="#2980B9"/>
<circle cx="80.5" cy="68.5" r="1" fill="#2980B9"/>
<circle cx="38.5" cy="38.5" r="1" fill="#2980B9"/>
<circle cx="38.5" cy="80.5" r="1" fill="#2980B9"/>
<circle cx="80.5" cy="38.5" r="1" fill="#2980B9"/>
<circle cx="80.5" cy="80.5" r="1" fill="#2980B9"/>
<circle cx="5.5" cy="2.5" r="1" fill="#2980B9"/>
<circle cx="5.5" cy="44.5" r="1" fill="#2980B9"/>
<circle cx="47.5" cy="2.5" r="1" fill="#2980B9"/>
<circle cx="47.5" cy="44.5" r="1" fill="#2980B9"/>
<circle cx="17.5" cy="2.5" r="1" fill="#2980B9"/>
<circle cx="17.5" cy="44.5" r="1" fill="#2980B9"/>
<circle cx="59.5" cy="2.5" r="1" fill="#2980B9"/>
<circle cx="59.5" cy="44.5" r="1" fill="#2980B9"/>
<circle cx="32.5" cy="2.5" r="1" fill="#2980B9"/>
<circle cx="32.5" cy="44.5" r="1" fill="#2980B9"/>
<circle cx="74.5" cy="2.5" r="1" fill="#2980B9"/>
<circle cx="74.5" cy="44.5" r="1" fill="#2980B9"/>
<circle cx="5.5" cy="14.5" r="1" fill="#2980B9"/>
<circle cx="5.5" cy="56.5" r="1" fill="#2980B9"/>
<circle cx="47.5" cy="14.5" r="1" fill="#2980B9"/>
<circle cx="47.5" cy="56.5" r="1" fill="#2980B9"/>
<circle cx="5.5" cy="26.5" r="1" fill="#2980B9"/>
<circle cx="5.5" cy="68.5" r="1" fill="#2980B9"/>
<circle cx="47.5" cy="26.5" r="1" fill="#2980B9"/>
<circle cx="47.5" cy="68.5" r="1" fill="#2980B9"/>
<circle cx="5.5" cy="38.5" r="1" fill="#2980B9"/>
<circle cx="5.5" cy="80.5" r="1" fill="#2980B9"/>
<circle cx="47.5" cy="38.5" r="1" fill="#2980B9"/>
<circle cx="47.5" cy="80.5" r="1" fill="#2980B9"/>
<circle cx="17.5" cy="14.5" r="1" fill="#2980B9"/>
<circle cx="17.5" cy="56.5" r="1" fill="#2980B9"/>
<circle cx="59.5" cy="14.5" r="1" fill="#2980B9"/>
<circle cx="59.5" cy="56.5" r="1" fill="#2980B9"/>
<circle cx="32.5" cy="14.5" r="1" fill="#2980B9"/>
<circle cx="32.5" cy="56.5" r="1" fill="#2980B9"/>
<circle cx="74.5" cy="14.5" r="1" fill="#2980B9"/>
<circle cx="74.5" cy="56.5" r="1" fill="#2980B9"/>
<circle cx="17.5" cy="26.5" r="1" fill="#2980B9"/>
<circle cx="17.5" cy="68.5" r="1" fill="#2980B9"/>
<circle cx="59.5" cy="26.5" r="1" fill="#2980B9"/>
<circle cx="59.5" cy="68.5" r="1" fill="#2980B9"/>
<circle cx="17.5" cy="38.5" r="1" fill="#2980B9"/>
<circle cx="17.5" cy="80.5" r="1" fill="#2980B9"/>
<circle cx="59.5" cy="38.5" r="1" fill="#2980B9"/>
<circle cx="59.5" cy="80.5" r="1" fill="#2980B9"/>
<circle cx="32.5" cy="26.5" r="1" fill="#2980B9"/>
<circle cx="32.5" cy="68.5" r="1" fill="#2980B9"/>
<circle cx="74.5" cy="26.5" r="1" fill="#2980B9"/>
<circle cx="74.5" cy="68.5" r="1" fill="#2980B9"/>
<circle cx="32.5" cy="38.5" r="1" fill="#2980B9"/>
<circle cx="32.5" cy="80.5" r="1" fill="#2980B9"/>
<circle cx="74.5" cy="38.5" r="1" fill="#2980B9"/>
<circle cx="74.5" cy="80.5" r="1" fill="#2980B9"/>
<circle cx="2.5" cy="2.5" r="1" fill="#2980B9"/>
<circle cx="2.5" cy="44.5" r="1" fill="#2980B9"/>
<circle cx="44.5" cy="2.5" r="1" fill="#2980B9"/>
<circle cx="44.5" cy="44.5" r="1" fill="#2980B9"/>
<circle cx="14.5" cy="2.5" r="1" fill="#2980B9"/>
<circle cx="14.5" cy="44.5" r="1" fill="#2980B9"/>
<circle cx="56.5" cy="2.5" r="1" fill="#2980B9"/>
<circle cx="56.5" cy="44.5" r="1" fill="#2980B9"/>
<circle cx="29.5" cy="2.5" r="1" fill="#2980B9"/>
<circle cx="29.5" cy="44.5" r="1" fill="#2980B9"/>
<circle cx="71.5" cy="2.5" r="1" fill="#2980B9"/>
<circle cx="71.5" cy="44.5" r="1" fill="#2980B9"/>
<circle cx="26.5" cy="2.5" r="1" fill="#2980B9"/>
<circle cx="26.5" cy="44.5" r="1" fill="#2980B9"/>
<circle cx="68.5" cy="2.5" r="1" fill="#2980B9"/>
<circle cx="68.5" cy="44.5" r="1" fill="#2980B9"/>
<circle cx="2.5" cy="14.5" r="1" fill="#2980B9"/>
<circle cx="2.5" cy="56.5" r="1" fill="#2980B9"/>
<circle cx="44.5" cy="14.5" r="1" fill="#2980B9"/>
<circle cx="44.5" cy="56.5" r="1" fill="#2980B9"/>
<circle cx="2.5" cy="26.5" r="1" fill="#2980B9"/>
<circle cx="2.5" cy="68.5" r="1" fill="#2980B9"/>
<circle cx="44.5" cy="26.5" r="1" fill="#2980B9"/>
<circle cx="44.5" cy="68.5" r="1" fill="#2980B9"/>
<circle cx="2.5" cy="38.5" r="1" fill="#2980B9"/>
<circle cx="2.5" cy="80.5" r="1" fill="#2980B9"/>
<circle cx="44.5" cy="38.5" r="1" fill="#2980B9"/>
<circle cx="44.5" cy="80.5" r="1" fill="#2980B9"/>
<circle cx="14.5" cy="14.5" r="1" fill="#2980B9"/>
<circle cx="14.5" cy="56.5" r="1" fill="#2980B9"/>
<circle cx="56.5" cy="14.5" r="1" fill="#2980B9"/>
<circle cx="56.5" cy="56.5" r="1" fill="#2980B9"/>
<circle cx="29.5" cy="14.5" r="1" fill="#2980B9"/>
<circle cx="29.5" cy="56.5" r="1" fill="#2980B9"/>
<circle cx="71.5" cy="14.5" r="1" fill="#2980B9"/>
<circle cx="71.5" cy="56.5" r="1" fill="#2980B9"/>
<circle cx="14.5" cy="26.5" r="1" fill="#2980B9"/>
<circle cx="14.5" cy="68.5" r="1" fill="#2980B9"/>
<circle cx="56.5" cy="26.5" r="1" fill="#2980B9"/>
<circle cx="56.5" cy="68.5" r="1" fill="#2980B9"/>
<circle cx="14.5" cy="38.5" r="1" fill="#2980B9"/>
<circle cx="14.5" cy="80.5" r="1" fill="#2980B9"/>
<circle cx="56.5" cy="38.5" r="1" fill="#2980B9"/>
<circle cx="56.5" cy="80.5" r="1" fill="#2980B9"/>
<circle cx="29.5" cy="26.5" r="1" fill="#2980B9"/>
<circle cx="29.5" cy="68.5" r="1" fill="#2980B9"/>
<circle cx="71.5" cy="26.5" r="1" fill="#2980B9"/>
<circle cx="71.5" cy="68.5" r="1" fill="#2980B9"/>
<circle cx="29.5" cy="38.5" r="1" fill="#2980B9"/>
<circle cx="29.5" cy="80.5" r="1" fill="#2980B9"/>
<circle cx="71.5" cy="38.5" r="1" fill="#2980B9"/>
<circle cx="71.5" cy="80.5" r="1" fill="#2980B9"/>
<circle cx="26.5" cy="14.5" r="1" fill="#2980B9"/>
<circle cx="26.5" cy="56.5" r="1" fill="#2980B9"/>
<circle cx="68.5" cy="14.5" r="1" fill="#2980B9"/>
<circle cx="68.5" cy="56.5" r="1" fill="#2980B9"/>
<circle cx="26.5" cy="26.5" r="1" fill="#2980B9"/>
<circle cx="26.5" cy="68.5" r="1" fill="#2980B9"/>
<circle cx="68.5" cy="26.5" r="1" fill="#2980B9"/>
<circle cx="68.5" cy="68.5" r="1" fill="#2980B9"/>
<circle cx="26.5" cy="38.5" r="1" fill="#2980B9"/>
<circle cx="26.5" cy="80.5" r="1" fill="#2980B9"/>
<circle cx="68.5" cy="38.5" r="1" fill="#2980B9"/>
<circle cx="68.5" cy="80.5" r="1" fill="#2980B9"/>
<circle cx="8.5" cy="2.5" r="1" fill="#2980B9"/>
<circle cx="8.5" cy="44.5" r="1" fill="#2980B9"/>
<circle cx="50.5" cy="2.5" r="1" fill="#2980B9"/>
<circle cx="50.5" cy="44.5" r="1" fill="#2980B9"/>
<circle cx="20.5" cy="2.5" r="1" fill="#2980B9"/>
<circle cx="20.5" cy="44.5" r="1" fill="#2980B9"/>
<circle cx="62.5" cy="2.5" r="1" fill="#2980B9"/>
<circle cx="62.5" cy="44.5" r="1" fill="#2980B9"/>
<circle cx="35.5" cy="2.5" r="1" fill="#2980B9"/>
<circle cx="35.5" cy="44.5" r="1" fill="#2980B9"/>
<circle cx="77.5" cy="2.5" r="1" fill="#2980B9"/>
<circle cx="77.5" cy="44.5" r="1" fill="#2980B9"/>
<circle cx="8.5" cy="14.5" r="1" fill="#2980B9"/>
<circle cx="8.5" cy="56.5" r="1" fill="#2980B9"/>
<circle cx="50.5" cy="14.5" r="1" fill="#2980B9"/>
<circle cx="50.5" cy="56.5" r="1" fill="#2980B9"/>
<circle cx="8.5" cy="26.5" r="1" fill="#2980B9"/>
<circle cx="8.5" cy="68.5" r="1" fill="#2980B9"/>
<circle cx="50.5" cy="26.5" r="1" fill="#2980B9"/>
<circle cx="50.5" cy="68.5" r="1" fill="#2980B9"/>
<circle cx="8.5" cy="38.5" r="1" fill="#2980B9"/>
<circle cx="8.5" cy="80.5" r="1" fill="#2980B9"/>
<circle cx="50.5" cy="38.5" r="1" fill="#2980B9"/>
<circle cx="50.5" cy="80.5" r="1" fill="#2980B9"/>
<circle cx="20.5" cy="14.5" r="1" fill="#2980B9"/>
<circle cx="20.5" cy="56.5" r="1" fill="#2980B9"/>
<circle cx="62.5" cy="14.5" r="1" fill="#2980B9"/>
<circle cx="62.5" cy="56.5" r="1" fill="#2980B9"/>
<circle cx="35.5" cy="14.5" r="1" fill="#2980B9"/>
<circle cx="35.5" cy="56.5" r="1" fill="#2980B9"/>
<circle cx="77.5" cy="14.5" r="1" fill="#2980B9"/>
<circle cx="77.5" cy="56.5" r="1" fill="#2980B9"/>
<circle cx="20.5" cy="26.5" r="1" fill="#2980B9"/>
<circle cx="20.5" cy="68.5" r="1" fill="#2980B9"/>
<circle cx="62.5" cy="26.5" r="1" fill="#2980B9"/>
<circle cx="62.5" cy="68.5" r="1" fill="#2980B9"/>
<circle cx="20.5" cy="38.5" r="1" fill="#2980B9"/>
<circle cx="20.5" cy="80.5" r="1" fill="#2980B9"/>
<circle cx="62.5" cy="38.5" r="1" fill="#2980B9"/>
<circle cx="62.5" cy="80.5" r="1" fill="#2980B9"/>
<circle cx="35.5" cy="26.5" r="1" fill="#2980B9"/>
<circle cx="35.5" cy="68.5" r="1" fill="#2980B9"/>
<circle cx="77.5" cy="26.5" r="1" fill="#2980B9"/>
<circle cx="77.5" cy="68.5" r="1" fill="#2980B9"/>
<circle cx="35.5" cy="38.5" r="1" fill="#2980B9"/>
<circle cx="35.5" cy="80.5" r="1" fill="#2980B9"/>
<circle cx="77.5" cy="38.5" r="1" fill="#2980B9"/>
<circle cx="77.5" cy="80.5" r="1" fill="#2980B9"/>
<circle cx="-0.5" cy="5.5" r="1" fill="#2980B9"/>
<circle cx="-0.5" cy="47.5" r="1" fill="#2980B9"/>
<circle cx="41.5" cy="5.5" r="1" fill="#2980B9"/>
<circle cx="41.5" cy="47.5" r="1" fill="#2980B9"/>
<circle cx="-0.5" cy="17.5" r="1" fill="#2980B9"/>
<circle cx="-0.5" cy="59.5" r="1" fill="#2980B9"/>
<circle cx="41.5" cy="17.5" r="1" fill="#2980B9"/>
<circle cx="41.5" cy="59.5" r="1" fill="#2980B9"/>
<circle cx="-0.5" cy="29.5" r="1" fill="#2980B9"/>
<circle cx="-0.5" cy="71.5" r="1" fill="#2980B9"/>
<circle cx="41.5" cy="29.5" r="1" fill="#2980B9"/>
<circle cx="41.5" cy="71.5" r="1" fill="#2980B9"/>
<circle cx="11.5" cy="5.5" r="1" fill="#2980B9"/>
<circle cx="11.5" cy="47.5" r="1" fill="#2980B9"/>
<circle cx="53.5" cy="5.5" r="1" fill="#2980B9"/>
<circle cx="53.5" cy="47.5" r="1" fill="#2980B9"/>
<circle cx="11.5" cy="17.5" r="1" fill="#2980B9"/>
<circle cx="11.5" cy="59.5" r="1" fill="#2980B9"/>
<circle cx="53.5" cy="17.5" r="1" fill="#2980B9"/>
<circle cx="53.5" cy="59.5" r="1" fill="#2980B9"/>
<circle cx="11.5" cy="29.5" r="1" fill="#2980B9"/>
<circle cx="11.5" cy="71.5" r="1" fill="#2980B9"/>
<circle cx="53.5" cy="29.5" r="1" fill="#2980B9"/>
<circle cx="53.5" cy="71.5" r="1" fill="#2980B9"/>
<circle cx="23.5" cy="5.5" r="1" fill="#2980B9"/>
<circle cx="23.5" cy="47.5" r="1" fill="#2980B9"/>
<circle cx="65.5" cy="5.5" r="1" fill="#2980B9"/>
<circle cx="65.5" cy="47.5" r="1" fill="#2980B9"/>
<circle cx="38.5" cy="5.5" r="1" fill="#2980B9"/>
<circle cx="38.5" cy="47.5" r="1" fill="#2980B9"/>
<circle cx="80.5" cy="5.5" r="1" fill="#2980B9"/>
<circle cx="80.5" cy="47.5" r="1" fill="#2980B9"/>
<circle cx="23.5" cy="17.5" r="1" fill="#2980B9"/>
<circle cx="23.5" cy="59.5" r="1" fill="#2980B9"/>
<circle cx="65.5" cy="17.5" r="1" fill="#2980B9"/>
<circle cx="65.5" cy="59.5" r="1" fill="#2980B9"/>
<circle cx="23.5" cy="29.5" r="1" fill="#2980B9"/>
<circle cx="23.5" cy="71.5" r="1" fill="#2980B9"/>
<circle cx="65.5" cy="29.5" r="1" fill="#2980B9"/>
<circle cx="65.5" cy="71.5" r="1" fill="#2980B9"/>
<circle cx="38.5" cy="17.5" r="1" fill="#2980B9"/>
<circle cx="38.5" cy="59.5" r="1" fill="#2980B9"/>
<circle cx="80.5" cy="17.5" r="1" fill="#2980B9"/>
<circle cx="80.5" cy="59.5" r="1" fill="#2980B9"/>
<circle cx="38.5" cy="29.5" r="1" fill="#2980B9"/>
<circle cx="38.5" cy="71.5" r="1" fill="#2980B9"/>
<circle cx="80.5" cy="29.5" r="1" fill="#2980B9"/>
<circle cx="80.5" cy="71.5" r="1" fill="#2980B9"/>
<circle cx="5.5" cy="5.5" r="1" fill="#2980B9"/>
<circle cx="5.5" cy="47.5" r="1" fill="#2980B9"/>
<circle cx="47.5" cy="5.5" r="1" fill="#2980B9"/>
<circle cx="47.5" cy="47.5" r="1" fill="#2980B9"/>
<circle cx="5.5" cy="17.5" r="1" fill="#2980B9"/>
<circle cx="5.5" cy="59.5" r="1" fill="#2980B9"/>
<circle cx="47.5" cy="17.5" r="1" fill="#2980B9"/>
<circle cx="47.5" cy="59.5" r="1" fill="#2980B9"/>
<circle cx="5.5" cy="29.5" r="1" fill="#2980B9"/>
<circle cx="5.5" cy="71.5" r="1" fill="#2980B9"/>
<circle cx="47.5" cy="29.5" r="1" fill="#2980B9"/>
<circle cx="47.5" cy="71.5" r="1" fill="#2980B9"/>
<circle cx="17.5" cy="5.5" r="1" fill="#2980B9"/>
<circle cx="17.5" cy="47.5" r="1" fill="#2980B9"/>
<circle cx="59.5" cy="5.5" r="1" fill="#2980B9"/>
<circle cx="59.5" cy="47.5" r="1" fill="#2980B9"/>
<circle cx="32.5" cy="5.5" r="1" fill="#2980B9"/>
<circle cx="32.5" cy="47.5" r="1" fill="#2980B9"/>
<circle cx="74.5" cy="5.5" r="1" fill="#2980B9"/>
<circle cx="74.5" cy="47.5" r="1" fill="#2980B9"/>
<circle cx="17.5" cy="17.5" r="1" fill="#2980B9"/>
<circle cx="17.5" cy="59.5" r="1" fill="#2980B9"/>
<circle cx="59.5" cy="17.5" r="1" fill="#2980B9"/>
<circle cx="59.5" cy="59.5" r="1" fill="#2980B9"/>
<circle cx="17.5" cy="29.5" r="1" fill="#2980B9"/>
<circle cx="17.5" cy="71.5" r="1" fill="#2980B9"/>
<circle cx="59.5" cy="29.5" r="1" fill="#2980B9"/>
<circle cx="59.5" cy="71.5" r="1" fill="#2980B9"/>
<circle cx="32.5" cy="17.5" r="1" fill="#2980B9"/>
<circle cx="32.5" cy="59.5" r="1" fill="#2980B9"/>
<circle cx="74.5" cy="17.5" r="1" fill="#2980B9"/>
<circle cx="74.5" cy="59.5" r="1" fill="#2980B9"/>
<circle cx="32.5" cy="29.5" r="1" fill="#2980B9"/>
<circle cx="32.5" cy="71.5" r="1" fill="#2980B9"/>
<circle cx="74.5" cy="29.5" r="1" fill="#2980B9"/>
<circle cx="74.5" cy="71.5" r="1" fill="#2980B9"/>
<circle cx="2.5" cy="5.5" r="1" fill="#2980B9"/>
<circle cx="2.5" cy="47.5" r="1" fill="#2980B9"/>
<circle cx="44.5" cy="5.5" r="1" fill="#2980B9"/>
<circle cx="44.5" cy="47.5" r="1" fill="#2980B9"/>
<circle cx="2.5" cy="17.5" r="1" fill="#2980B9"/>
<circle cx="2.5" cy="59.5" r="1" fill="#2980B9"/>
<circle cx="44.5" cy="17.5" r="1" fill="#2980B9"/>
<circle cx="44.5" cy="59.5" r="1" fill="#2980B9"/>
<circle cx="2.5" cy="29.5" r="1" fill="#2980B9"/>
<circle cx="2.5" cy="71.5" r="1" fill="#2980B9"/>
<circle cx="44.5" cy="29.5" r="1" fill="#2980B9"/>
<circle cx="44.5" cy="71.5" r="1" fill="#2980B9"/>
<circle cx="14.5" cy="5.5" r="1" fill="#2980B9"/>
<circle cx="14.5" cy="47.5" r="1" fill="#2980B9"/>
<circle cx="56.5" cy="5.5" r="1" fill="#2980B9"/>
<circle cx="56.5" cy="47.5" r="1" fill="#2980B9"/>
<circle cx="29.5" cy="5.5" r="1" fill="#2980B9"/>
<circle cx="29.5" cy="47.5" r="1" fill="#2980B9"/>
<circle cx="71.5" cy="5.5" r="1" fill="#2980B9"/>
<circle cx="71.5" cy="47.5" r="1" fill="#2980B9"/>
<circle cx="14.5" cy="17.5" r="1" fill="#2980B9"/>
<circle cx="14.5" cy="59.5" r="1" fill="#2980B9"/>
<circle cx="56.5" cy="17.5" r="1" fill="#2980B9"/>
<circle cx="56.5" cy="59.5" r="1" fill="#2980B9"/>
<circle cx="14.5" cy="29.5" r="1" fill="#2980B9"/>
<circle cx="14.5" cy="71.5" r="1" fill="#2980B9"/>
<circle cx="56.5" cy="29.5" r="1" fill="#2980B9"/>
<circle cx="56.5" cy="71.5" r="1" fill="#2980B9"/>
<circle cx="29.5" cy="17.5" r="1" fill="#2980B9"/>
<circle cx="29.5" cy="59.5" r="1" fill="#2980B9"/>
<circle cx="71.5" cy="17.5" r="1" fill="#2980B9"/>
<circle cx="71.5" cy="59.5" r="1" fill="#2980B9"/>
<circle cx="29.5" cy="29.5" r="1" fill="#2980B9"/>
<circle cx="29.5" cy="71.5" r="1" fill="#2980B9"/>
<circle cx="71.5" cy="29.5" r="1" fill="#2980B9"/>
<circle cx="71.5" cy="71.5" r="1" fill="#2980B9"/>
<circle cx="26.5" cy="5.5" r="1" fill="#2980B9"/>
<circle cx="26.5" cy="47.5" r="1" fill="#2980B9"/>
<circle cx="68.5" cy="5.5" r="1" fill="#2980B9"/>
<circle cx="68.5" cy="47.5" r="1" fill="#2980B9"/>
<circle cx="26.5" cy="17.5" r="1" fill="#2980B9"/>
<circle cx="26.5" cy="59.5" r="1" fill="#2980B9"/>
<circle cx="68.5" cy="17.5" r="1" fill="#2980B9"/>
<circle cx="68.5" cy="59.5" r="1" fill="#2980B9"/>
<circle cx="26.5" cy="29.5" r="1" fill="#2980B9"/>
<circle cx="26.5" cy="71.5" r="1" fill="#2980B9"/>
<circle cx="68.5" cy="29.5" r="1" fill="#2980B9"/>
<circle cx="68.5" cy="71.5" r="1" fill="#2980B9"/>
<circle cx="8.5" cy="5.5" r="1" fill="#2980B9"/>
<circle cx="8.5" cy="47.5" r="1" fill="#2980B9"/>
<circle cx="50.5" cy="5.5" r="1" fill="#2980B9"/>
<circle cx="50.5" cy="47.5" r="1" fill="#2980B9"/>
<circle cx="8.5" cy="17.5" r="1" fill="#2980B9"/>
<circle cx="8.5" cy="59.5" r="1" fill="#2980B9"/>
<circle cx="50.5" cy="17.5" r="1" fill="#2980B9"/>
<circle cx="50.5" cy="59.5" r="1" fill="#2980B9"/>
<circle cx="8.5" cy="29.5" r="1" fill="#2980B9"/>
<circle cx="8.5" cy="71.5" r="1" fill="#2980B9"/>
<circle cx="50.5" cy="29.5" r="1" fill="#2980B9"/>
<circle cx="50.5" cy="71.5" r="1" fill="#2980B9"/>
<circle cx="20.5" cy="5.5" r="1" fill="#2980B9"/>
<circle cx="20.5" cy="47.5" r="1" fill="#2980B9"/>
<circle cx="62.5" cy="5.5" r="1" fill="#2980B9"/>
<circle cx="62.5" cy="47.5" r="1" fill="#2980B9"/>
<circle cx="35.5" cy="5.5" r="1" fill="#2980B9"/>
<circle cx="35.5" cy="47.5" r="1" fill="#2980B9"/>
<circle cx="77.5" cy="5.5" r="1" fill="#2980B9"/>
<circle cx="77.5" cy="47.5" r="1" fill="#2980B9"/>
<circle cx="20.5" cy="17.5" r="1" fill="#2980B9"/>
<circle cx="20.5" cy="59.5" r="1" fill="#2980B9"/>
<circle cx="62.5" cy="17.5" r="1" fill="#2980B9"/>
<circle cx="62.5" cy="59.5" r="1" fill="#2980B9"/>
<circle cx="20.5" cy="29.5" r="1" fill="#2980B9"/>
<circle cx="20.5" cy="71.5" r="1" fill="#2980B9"/>
<circle cx="62.5" cy="29.5" r="1" fill="#2980B9"/>
<circle cx="62.5" cy="71.5" r="1" fill="#2980B9"/>
<circle cx="35.5" cy="17.5" r="1" fill="#2980B9"/>
<circle cx="35.5" cy="59.5" r="1" fill="#2980B9"/>
<circle cx="77.5" cy="17.5" r="1" fill="#2980B9"/>
<circle cx="77.5" cy="59.5" r="1" fill="#2980B9"/>
<circle cx="35.5" cy="29.5" r="1" fill="#2980B9"/>
<circle cx="35.5" cy="71.5" r="1" fill="#2980B9"/>
<circle cx="77.5" cy="29.5" r="1" fill="#2980B9"/>
<circle cx="77.5" cy="71.5" r="1" fill="#2980B9"/>
<circle cx="-0.5" cy="8.5" r="1" fill="#2980B9"/>
<circle cx="-0.5" cy="50.5" r="1" fill="#2980B9"/>
<circle cx="41.5" cy="8.5" r="1" fill="#2980B9"/>
<circle cx="41.5" cy="50.5" r="1" fill="#2980B9"/>
<circle cx="-0.5" cy="20.5" r="1" fill="#2980B9"/>
<circle cx="-0.5" cy="62.5" r="1" fill="#2980B9"/>
<circle cx="41.5" cy="20.5" r="1" fill="#2980B9"/>
<circle cx="41.5" cy="62.5" r="1" fill="#2980B9"/>
<circle cx="-0.5" cy="32.5" r="1" fill="#2980B9"/>
<circle cx="-0.5" cy="74.5" r="1" fill="#2980B9"/>
<circle cx="41.5" cy="32.5" r="1" fill="#2980B9"/>
<circle cx="41.5" cy="74.5" r="1" fill="#2980B9"/>
<circle cx="11.5" cy="8.5" r="1" fill="#2980B9"/>
<circle cx="11.5" cy="50.5" r="1" fill="#2980B9"/>
<circle cx="53.5" cy="8.5" r="1" fill="#2980B9"/>
<circle cx="53.5" cy="50.5" r="1" fill="#2980B9"/>
<circle cx="11.5" cy="20.5" r="1" fill="#2980B9"/>
<circle cx="11.5" cy="62.5" r="1" fill="#2980B9"/>
<circle cx="53.5" cy="20.5" r="1" fill="#2980B9"/>
<circle cx="53.5" cy="62.5" r="1" fill="#2980B9"/>
<circle cx="11.5" cy="32.5" r="1" fill="#2980B9"/>
<circle cx="11.5" cy="74.5" r="1" fill="#2980B9"/>
<circle cx="53.5" cy="32.5" r="1" fill="#2980B9"/>
<circle cx="53.5" cy="74.5" r="1" fill="#2980B9"/>
<circle cx="23.5" cy="8.5" r="1" fill="#2980B9"/>
<circle cx="23.5" cy="50.5" r="1" fill="#2980B9"/>
<circle cx="65.5" cy="8.5" r="1" fill="#2980B9"/>
<circle cx="65.5" cy="50.5" r="1" fill="#2980B9"/>
<circle cx="38.5" cy="8.5" r="1" fill="#2980B9"/>
<circle cx="38.5" cy="50.5" r="1" fill="#2980B9"/>
<circle cx="80.5" cy="8.5" r="1" fill="#2980B9"/>
<circle cx="80.5" cy="50.5" r="1" fill="#2980B9"/>
<circle cx="23.5" cy="20.5" r="1" fill="#2980B9"/>
<circle cx="23.5" cy="62.5" r="1" fill="#2980B9"/>
<circle cx="65.5" cy="20.5" r="1" fill="#2980B9"/>
<circle cx="65.5" cy="62.5" r="1" fill="#2980B9"/>
<circle cx="23.5" cy="32.5" r="1" fill="#2980B9"/>
<circle cx="23.5" cy="74.5" r="1" fill="#2980B9"/>
<circle cx="65.5" cy="32.5" r="1" fill="#2980B9"/>
<circle cx="65.5" cy="74.5" r="1" fill="#2980B9"/>
<circle cx="38.5" cy="20.5" r="1" fill="#2980B9"/>
<circle cx="38.5" cy="62.5" r="1" fill="#2980B9"/>
<circle cx="80.5" cy="20.5" r="1" fill="#2980B9"/>
<circle cx="80.5" cy="62.5" r="1" fill="#2980B9"/>
<circle cx="38.5" cy="32.5" r="1" fill="#2980B9"/>
<circle cx="38.5" cy="74.5" r="1" fill="#2980B9"/>
<circle cx="80.5" cy="32.5" r="1" fill="#2980B9"/>
<circle cx="80.5" cy="74.5" r="1" fill="#2980B9"/>
<circle cx="5.5" cy="8.5" r="1" fill="#2980B9"/>
<circle cx="5.5" cy="50.5" r="1" fill="#2980B9"/>
<circle cx="47.5" cy="8.5" r="1" fill="#2980B9"/>
<circle cx="47.5" cy="50.5" r="1" fill="#2980B9"/>
<circle cx="5.5" cy="20.5" r="1" fill="#2980B9"/>
<circle cx="5.5" cy="62.5" r="1" fill="#2980B9"/>
<circle cx="47.5" cy="20.5" r="1" fill="#2980B9"/>
<circle cx="47.5" cy="62.5" r="1" fill="#2980B9"/>
<circle cx="5.5" cy="32.5" r="1" fill="#2980B9"/>
<circle cx="5.5" cy="74.5" r="1" fill="#2980B9"/>
<circle cx="47.5" cy="32.5" r="1" fill="#2980B9"/>
<circle cx="47.5" cy="74.5" r="1" fill="#2980B9"/>
<circle cx="17.5" cy="8.5" r="1" fill="#2980B9"/>
<circle cx="17.5" cy="50.5" r="1" fill="#2980B9"/>
<circle cx="59.5" cy="8.5" r="1" fill="#2980B9"/>
<circle cx="59.5" cy="50.5" r="1" fill="#2980B9"/>
<circle cx="32.5" cy="8.5" r="1" fill="#2980B9"/>
<circle cx="32.5" cy="50.5" r="1" fill="#2980B9"/>
<circle cx="74.5" cy="8.5" r="1" fill="#2980B9"/>
<circle cx="74.5" cy="50.5" r="1" fill="#2980B9"/>
<circle cx="17.5" cy="20.5" r="1" fill="#2980B9"/>
<circle cx="17.5" cy="62.5" r="1" fill="#2980B9"/>
<circle cx="59.5" cy="20.5" r="1" fill="#2980B9"/>
<circle cx="59.5" cy="62.5" r="1" fill="#2980B9"/>
<circle cx="17.5" cy="32.5" r="1" fill="#2980B9"/>
<circle cx="17.5" cy="74.5" r="1" fill="#2980B9"/>
<circle cx="59.5" cy="32.5" r="1" fill="#2980B9"/>
<circle cx="59.5" cy="74.5" r="1" fill="#2980B9"/>
<circle cx="32.5" cy="20.5" r="1" fill="#2980B9"/>
<circle cx="32.5" cy="62.5" r="1" fill="#2980B9"/>
<circle cx="74.5" cy="20.5" r="1" fill="#2980B9"/>
<circle cx="74.5" cy="62.5" r="1" fill="#2980B9"/>
<circle cx="32.5" cy="32.5" r="1" fill="#2980B9"/>
<circle cx="32.5" cy="74.5" r="1" fill="#2980B9"/>
<circle cx="74.5" cy="32.5" r="1" fill="#2980B9"/>
<circle cx="74.5" cy="74.5" r="1" fill="#2980B9"/>
<circle cx="2.5" cy="8.5" r="1" fill="#2980B9"/>
<circle cx="2.5" cy="50.5" r="1" fill="#2980B9"/>
<circle cx="44.5" cy="8.5" r="1" fill="#2980B9"/>
<circle cx="44.5" cy="50.5" r="1" fill="#2980B9"/>
<circle cx="2.5" cy="20.5" r="1" fill="#2980B9"/>
<circle cx="2.5" cy="62.5" r="1" fill="#2980B9"/>
<circle cx="44.5" cy="20.5" r="1" fill="#2980B9"/>
<circle cx="44.5" cy="62.5" r="1" fill="#2980B9"/>
<circle cx="2.5" cy="32.5" r="1" fill="#2980B9"/>
<circle cx="2.5" cy="74.5" r="1" fill="#2980B9"/>
<circle cx="44.5" cy="32.5" r="1" fill="#2980B9"/>
<circle cx="44.5" cy="74.5" r="1" fill="#2980B9"/>
<circle cx="14.5" cy="8.5" r="1" fill="#2980B9"/>
<circle cx="14.5" cy="50.5" r="1" fill="#2980B9"/>
<circle cx="56.5" cy="8.5" r="1" fill="#2980B9"/>
<circle cx="56.5" cy="50.5" r="1" fill="#2980B9"/>
<circle cx="29.5" cy="8.5" r="1" fill="#2980B9"/>
<circle cx="29.5" cy="50.5" r="1" fill="#2980B9"/>
<circle cx="71.5" cy="8.5" r="1" fill="#2980B9"/>
<circle cx="71.5" cy="50.5" r="1" fill="#2980B9"/>
<circle cx="14.5" cy="20.5" r="1" fill="#2980B9"/>
<circle cx="14.5" cy="62.5" r="1" fill="#2980B9"/>
<circle cx="56.5" cy="20.5" r="1" fill="#2980B9"/>
<circle cx="56.5" cy="62.5" r="1" fill="#2980B9"/>
<circle cx="14.5" cy="32.5" r="1" fill="#2980B9"/>
<circle cx="14.5" cy="74.5" r="1" fill="#2980B9"/>
<circle cx="56.5" cy="32.5" r="1" fill="#2980B9"/>
<circle cx="56.5" cy="74.5" r="1" fill="#2980B9"/>
<circle cx="29.5" cy="20.5" r="1" fill="#2980B9"/>
<circle cx="29.5" cy="62.5" r="1" fill="#2980B9"/>
<circle cx="71.5" cy="20.5" r="1" fill="#2980B9"/>
<circle cx="71.5" cy="62.5" r="1" fill="#2980B9"/>
<circle cx="29.5" cy="32.5" r="1" fill="#2980B9"/>
<circle cx="29.5" cy="74.5" r="1" fill="#2980B9"/>
<circle cx="71.5" cy="32.5" r="1" fill="#2980B9"/>
<circle cx="71.5" cy="74.5" r="1" fill="#2980B9"/>
<circle cx="26.5" cy="8.5" r="1" fill="#2980B9"/>
<circle cx="26.5" cy="50.5" r="1" fill="#2980B9"/>
<circle cx="68.5" cy="8.5" r="1" fill="#2980B9"/>
<circle cx="68.5" cy="50.5" r="1" fill="#2980B9"/>
<circle cx="26.5" cy="20.5" r="1" fill="#2980B9"/>
<circle cx="26.5" cy="62.5" r="1" fill="#2980B9"/>
<circle cx="68.5" cy="20.5" r="1" fill="#2980B9"/>
<circle cx="68.5" cy="62.5" r="1" fill="#2980B9"/>
<circle cx="26.5" cy="32.5" r="1" fill="#2980B9"/>
<circle cx="26.5" cy="74.5" r="1" fill="#2980B9"/>
<circle cx="68.5" cy="32.5" r="1" fill="#2980B9"/>
<circle cx="68.5" cy="74.5" r="1" fill="#2980B9"/>
<circle cx="8.5" cy="8.5" r="1" fill="#2980B9"/>
<circle cx="8.5" cy="50.5" r="1" fill="#2980B9"/>
<circle cx="50.5" cy="8.5" r="1" fill="#2980B9"/>
<circle cx="50.5" cy="50.5" r="1" fill="#2980B9"/>
<circle cx="8.5" cy="20.5" r="1" fill="#2980B9"/>
<circle cx="8.5" cy="62.5" r="1" fill="#2980B9"/>
<circle cx="50.5" cy="20.5" r="1" fill="#2980B9"/>
<circle cx="50.5" cy="62.5" r="1" fill="#2980B9"/>
<circle cx="8.5" cy="32.5" r="1" fill="#2980B9"/>
<circle cx="8.5" cy="74.5" r="1" fill="#2980B9"/>
<circle cx="50.5" cy="32.5" r="1" fill="#2980B9"/>
<circle cx="50.5" cy="74.5" r="1" fill="#2980B9"/>
<circle cx="20.5" cy="8.5" r="1" fill="#2980B9"/>
<circle cx="20.5" cy="50.5" r="1" fill="#2980B9"/>
<circle cx="62.5" cy="8.5" r="1" fill="#2980B9"/>
<circle cx="62.5" cy="50.5" r="1" fill="#2980B9"/>
<circle cx="35.5" cy="8.5" r="1" fill="#2980B9"/>
<circle cx="35.5" cy="50.5" r="1" fill="#2980B9"/>
<circle cx="77.5" cy="8.5" r="1" fill="#2980B9"/>
<circle cx="77.5" cy="50.5" r="1" fill="#2980B9"/>
<circle cx="20.5" cy="20.5" r="1" fill="#2980B9"/>
<circle cx="20.5" cy="62.5" r="1" fill="#2980B9"/>
<circle cx="62.5" cy="20.5" r="1" fill="#2980B9"/>
<circle cx="62.5" cy="62.5" r="1" fill="#2980B9"/>
<circle cx="20.5" cy="32.5" r="1" fill="#2980B9"/>
<circle cx="20.5" cy="74.5" r="1" fill="#2980B9"/>
<circle cx="62.5" cy="32.5" r="1" fill="#2980B9"/>
<circle cx="62.5" cy="74.5" r="1" fill="#2980B9"/>
<circle cx="35.5" cy="20.5" r="1" fill="#2980B9"/>
<circle cx="35.5" cy="62.5" r="1" fill="#2980B9"/>
<circle cx="77.5" cy="20.5" r="1" fill="#2980B9"/>
<circle cx="77.5" cy="62.5" r="1" fill="#2980B9"/>
<circle cx="35.5" cy="32.5" r="1" fill="#2980B9"/>
<circle cx="35.5" cy="74.5" r="1" fill="#2980B9"/>
<circle cx="77.5" cy="32.5" r="1" fill="#2980B9"/>
<circle cx="77.5" cy="74.5" r="1" fill="#2980B9"/>
</g>
</svg>
