<svg width="100" height="100" viewBox="0 0 100 100" fill="none" xmlns="http://www.w3.org/2000/svg">
<mask id="mask0" mask-type="alpha" maskUnits="userSpaceOnUse" x="6" y="0" width="88" height="75">
<path d="M50 0L93.3013 75H6.69873L50 0Z" fill="#2980B9"/>
</mask>
<g mask="url(#mask0)">
<circle cx="9.5" cy="-0.5" r="1" fill="#2980B9"/>
<circle cx="9.5" cy="41.5" r="1" fill="#2980B9"/>
<circle cx="51.5" cy="-0.5" r="1" fill="#2980B9"/>
<circle cx="51.5" cy="41.5" r="1" fill="#2980B9"/>
<circle cx="21.5" cy="-0.5" r="1" fill="#2980B9"/>
<circle cx="21.5" cy="41.5" r="1" fill="#2980B9"/>
<circle cx="63.5" cy="-0.5" r="1" fill="#2980B9"/>
<circle cx="63.5" cy="41.5" r="1" fill="#2980B9"/>
<circle cx="33.5" cy="-0.5" r="1" fill="#2980B9"/>
<circle cx="33.5" cy="41.5" r="1" fill="#2980B9"/>
<circle cx="75.5" cy="-0.5" r="1" fill="#2980B9"/>
<circle cx="75.5" cy="41.5" r="1" fill="#2980B9"/>
<circle cx="48.5" cy="-0.5" r="1" fill="#2980B9"/>
<circle cx="48.5" cy="41.5" r="1" fill="#2980B9"/>
<circle cx="90.5" cy="-0.5" r="1" fill="#2980B9"/>
<circle cx="90.5" cy="41.5" r="1" fill="#2980B9"/>
<circle cx="9.5" cy="11.5" r="1" fill="#2980B9"/>
<circle cx="9.5" cy="53.5" r="1" fill="#2980B9"/>
<circle cx="51.5" cy="11.5" r="1" fill="#2980B9"/>
<circle cx="51.5" cy="53.5" r="1" fill="#2980B9"/>
<circle cx="9.5" cy="23.5" r="1" fill="#2980B9"/>
<circle cx="9.5" cy="65.5" r="1" fill="#2980B9"/>
<circle cx="51.5" cy="23.5" r="1" fill="#2980B9"/>
<circle cx="51.5" cy="65.5" r="1" fill="#2980B9"/>
<circle cx="9.5" cy="35.5" r="1" fill="#2980B9"/>
<circle cx="51.5" cy="35.5" r="1" fill="#2980B9"/>
<circle cx="21.5" cy="11.5" r="1" fill="#2980B9"/>
<circle cx="21.5" cy="53.5" r="1" fill="#2980B9"/>
<circle cx="63.5" cy="11.5" r="1" fill="#2980B9"/>
<circle cx="63.5" cy="53.5" r="1" fill="#2980B9"/>
<circle cx="21.5" cy="23.5" r="1" fill="#2980B9"/>
<circle cx="21.5" cy="65.5" r="1" fill="#2980B9"/>
<circle cx="63.5" cy="23.5" r="1" fill="#2980B9"/>
<circle cx="63.5" cy="65.5" r="1" fill="#2980B9"/>
<circle cx="21.5" cy="35.5" r="1" fill="#2980B9"/>
<circle cx="63.5" cy="35.5" r="1" fill="#2980B9"/>
<circle cx="33.5" cy="11.5" r="1" fill="#2980B9"/>
<circle cx="33.5" cy="53.5" r="1" fill="#2980B9"/>
<circle cx="75.5" cy="11.5" r="1" fill="#2980B9"/>
<circle cx="75.5" cy="53.5" r="1" fill="#2980B9"/>
<circle cx="48.5" cy="11.5" r="1" fill="#2980B9"/>
<circle cx="48.5" cy="53.5" r="1" fill="#2980B9"/>
<circle cx="90.5" cy="11.5" r="1" fill="#2980B9"/>
<circle cx="90.5" cy="53.5" r="1" fill="#2980B9"/>
<circle cx="33.5" cy="23.5" r="1" fill="#2980B9"/>
<circle cx="33.5" cy="65.5" r="1" fill="#2980B9"/>
<circle cx="75.5" cy="23.5" r="1" fill="#2980B9"/>
<circle cx="75.5" cy="65.5" r="1" fill="#2980B9"/>
<circle cx="33.5" cy="35.5" r="1" fill="#2980B9"/>
<circle cx="75.5" cy="35.5" r="1" fill="#2980B9"/>
<circle cx="48.5" cy="23.5" r="1" fill="#2980B9"/>
<circle cx="48.5" cy="65.5" r="1" fill="#2980B9"/>
<circle cx="90.5" cy="23.5" r="1" fill="#2980B9"/>
<circle cx="90.5" cy="65.5" r="1" fill="#2980B9"/>
<circle cx="48.5" cy="35.5" r="1" fill="#2980B9"/>
<circle cx="90.5" cy="35.5" r="1" fill="#2980B9"/>
<circle cx="15.5" cy="-0.5" r="1" fill="#2980B9"/>
<circle cx="15.5" cy="41.5" r="1" fill="#2980B9"/>
<circle cx="57.5" cy="-0.5" r="1" fill="#2980B9"/>
<circle cx="57.5" cy="41.5" r="1" fill="#2980B9"/>
<circle cx="27.5" cy="-0.5" r="1" fill="#2980B9"/>
<circle cx="27.5" cy="41.5" r="1" fill="#2980B9"/>
<circle cx="69.5" cy="-0.5" r="1" fill="#2980B9"/>
<circle cx="69.5" cy="41.5" r="1" fill="#2980B9"/>
<circle cx="42.5" cy="-0.5" r="1" fill="#2980B9"/>
<circle cx="42.5" cy="41.5" r="1" fill="#2980B9"/>
<circle cx="84.5" cy="-0.5" r="1" fill="#2980B9"/>
<circle cx="84.5" cy="41.5" r="1" fill="#2980B9"/>
<circle cx="15.5" cy="11.5" r="1" fill="#2980B9"/>
<circle cx="15.5" cy="53.5" r="1" fill="#2980B9"/>
<circle cx="57.5" cy="11.5" r="1" fill="#2980B9"/>
<circle cx="57.5" cy="53.5" r="1" fill="#2980B9"/>
<circle cx="15.5" cy="23.5" r="1" fill="#2980B9"/>
<circle cx="15.5" cy="65.5" r="1" fill="#2980B9"/>
<circle cx="57.5" cy="23.5" r="1" fill="#2980B9"/>
<circle cx="57.5" cy="65.5" r="1" fill="#2980B9"/>
<circle cx="15.5" cy="35.5" r="1" fill="#2980B9"/>
<circle cx="57.5" cy="35.5" r="1" fill="#2980B9"/>
<circle cx="27.5" cy="11.5" r="1" fill="#2980B9"/>
<circle cx="27.5" cy="53.5" r="1" fill="#2980B9"/>
<circle cx="69.5" cy="11.5" r="1" fill="#2980B9"/>
<circle cx="69.5" cy="53.5" r="1" fill="#2980B9"/>
<circle cx="42.5" cy="11.5" r="1" fill="#2980B9"/>
<circle cx="42.5" cy="53.5" r="1" fill="#2980B9"/>
<circle cx="84.5" cy="11.5" r="1" fill="#2980B9"/>
<circle cx="84.5" cy="53.5" r="1" fill="#2980B9"/>
<circle cx="27.5" cy="23.5" r="1" fill="#2980B9"/>
<circle cx="27.5" cy="65.5" r="1" fill="#2980B9"/>
<circle cx="69.5" cy="23.5" r="1" fill="#2980B9"/>
<circle cx="69.5" cy="65.5" r="1" fill="#2980B9"/>
<circle cx="27.5" cy="35.5" r="1" fill="#2980B9"/>
<circle cx="69.5" cy="35.5" r="1" fill="#2980B9"/>
<circle cx="42.5" cy="23.5" r="1" fill="#2980B9"/>
<circle cx="42.5" cy="65.5" r="1" fill="#2980B9"/>
<circle cx="84.5" cy="23.5" r="1" fill="#2980B9"/>
<circle cx="84.5" cy="65.5" r="1" fill="#2980B9"/>
<circle cx="42.5" cy="35.5" r="1" fill="#2980B9"/>
<circle cx="84.5" cy="35.5" r="1" fill="#2980B9"/>
<circle cx="12.5" cy="-0.5" r="1" fill="#2980B9"/>
<circle cx="12.5" cy="41.5" r="1" fill="#2980B9"/>
<circle cx="54.5" cy="-0.5" r="1" fill="#2980B9"/>
<circle cx="54.5" cy="41.5" r="1" fill="#2980B9"/>
<circle cx="24.5" cy="-0.5" r="1" fill="#2980B9"/>
<circle cx="24.5" cy="41.5" r="1" fill="#2980B9"/>
<circle cx="66.5" cy="-0.5" r="1" fill="#2980B9"/>
<circle cx="66.5" cy="41.5" r="1" fill="#2980B9"/>
<circle cx="39.5" cy="-0.5" r="1" fill="#2980B9"/>
<circle cx="39.5" cy="41.5" r="1" fill="#2980B9"/>
<circle cx="81.5" cy="-0.5" r="1" fill="#2980B9"/>
<circle cx="81.5" cy="41.5" r="1" fill="#2980B9"/>
<circle cx="36.5" cy="-0.5" r="1" fill="#2980B9"/>
<circle cx="36.5" cy="41.5" r="1" fill="#2980B9"/>
<circle cx="78.5" cy="-0.5" r="1" fill="#2980B9"/>
<circle cx="78.5" cy="41.5" r="1" fill="#2980B9"/>
<circle cx="12.5" cy="11.5" r="1" fill="#2980B9"/>
<circle cx="12.5" cy="53.5" r="1" fill="#2980B9"/>
<circle cx="54.5" cy="11.5" r="1" fill="#2980B9"/>
<circle cx="54.5" cy="53.5" r="1" fill="#2980B9"/>
<circle cx="12.5" cy="23.5" r="1" fill="#2980B9"/>
<circle cx="12.5" cy="65.5" r="1" fill="#2980B9"/>
<circle cx="54.5" cy="23.5" r="1" fill="#2980B9"/>
<circle cx="54.5" cy="65.5" r="1" fill="#2980B9"/>
<circle cx="12.5" cy="35.5" r="1" fill="#2980B9"/>
<circle cx="54.5" cy="35.5" r="1" fill="#2980B9"/>
<circle cx="24.5" cy="11.5" r="1" fill="#2980B9"/>
<circle cx="24.5" cy="53.5" r="1" fill="#2980B9"/>
<circle cx="66.5" cy="11.5" r="1" fill="#2980B9"/>
<circle cx="66.5" cy="53.5" r="1" fill="#2980B9"/>
<circle cx="39.5" cy="11.5" r="1" fill="#2980B9"/>
<circle cx="39.5" cy="53.5" r="1" fill="#2980B9"/>
<circle cx="81.5" cy="11.5" r="1" fill="#2980B9"/>
<circle cx="81.5" cy="53.5" r="1" fill="#2980B9"/>
<circle cx="24.5" cy="23.5" r="1" fill="#2980B9"/>
<circle cx="24.5" cy="65.5" r="1" fill="#2980B9"/>
<circle cx="66.5" cy="23.5" r="1" fill="#2980B9"/>
<circle cx="66.5" cy="65.5" r="1" fill="#2980B9"/>
<circle cx="24.5" cy="35.5" r="1" fill="#2980B9"/>
<circle cx="66.5" cy="35.5" r="1" fill="#2980B9"/>
<circle cx="39.5" cy="23.5" r="1" fill="#2980B9"/>
<circle cx="39.5" cy="65.5" r="1" fill="#2980B9"/>
<circle cx="81.5" cy="23.5" r="1" fill="#2980B9"/>
<circle cx="81.5" cy="65.5" r="1" fill="#2980B9"/>
<circle cx="39.5" cy="35.5" r="1" fill="#2980B9"/>
<circle cx="81.5" cy="35.5" r="1" fill="#2980B9"/>
<circle cx="36.5" cy="11.5" r="1" fill="#2980B9"/>
<circle cx="36.5" cy="53.5" r="1" fill="#2980B9"/>
<circle cx="78.5" cy="11.5" r="1" fill="#2980B9"/>
<circle cx="78.5" cy="53.5" r="1" fill="#2980B9"/>
<circle cx="36.5" cy="23.5" r="1" fill="#2980B9"/>
<circle cx="36.5" cy="65.5" r="1" fill="#2980B9"/>
<circle cx="78.5" cy="23.5" r="1" fill="#2980B9"/>
<circle cx="78.5" cy="65.5" r="1" fill="#2980B9"/>
<circle cx="36.5" cy="35.5" r="1" fill="#2980B9"/>
<circle cx="78.5" cy="35.5" r="1" fill="#2980B9"/>
<circle cx="18.5" cy="-0.5" r="1" fill="#2980B9"/>
<circle cx="18.5" cy="41.5" r="1" fill="#2980B9"/>
<circle cx="60.5" cy="-0.5" r="1" fill="#2980B9"/>
<circle cx="60.5" cy="41.5" r="1" fill="#2980B9"/>
<circle cx="30.5" cy="-0.5" r="1" fill="#2980B9"/>
<circle cx="30.5" cy="41.5" r="1" fill="#2980B9"/>
<circle cx="72.5" cy="-0.5" r="1" fill="#2980B9"/>
<circle cx="72.5" cy="41.5" r="1" fill="#2980B9"/>
<circle cx="45.5" cy="-0.5" r="1" fill="#2980B9"/>
<circle cx="45.5" cy="41.5" r="1" fill="#2980B9"/>
<circle cx="87.5" cy="-0.5" r="1" fill="#2980B9"/>
<circle cx="87.5" cy="41.5" r="1" fill="#2980B9"/>
<circle cx="18.5" cy="11.5" r="1" fill="#2980B9"/>
<circle cx="18.5" cy="53.5" r="1" fill="#2980B9"/>
<circle cx="60.5" cy="11.5" r="1" fill="#2980B9"/>
<circle cx="60.5" cy="53.5" r="1" fill="#2980B9"/>
<circle cx="18.5" cy="23.5" r="1" fill="#2980B9"/>
<circle cx="18.5" cy="65.5" r="1" fill="#2980B9"/>
<circle cx="60.5" cy="23.5" r="1" fill="#2980B9"/>
<circle cx="60.5" cy="65.5" r="1" fill="#2980B9"/>
<circle cx="18.5" cy="35.5" r="1" fill="#2980B9"/>
<circle cx="60.5" cy="35.5" r="1" fill="#2980B9"/>
<circle cx="30.5" cy="11.5" r="1" fill="#2980B9"/>
<circle cx="30.5" cy="53.5" r="1" fill="#2980B9"/>
<circle cx="72.5" cy="11.5" r="1" fill="#2980B9"/>
<circle cx="72.5" cy="53.5" r="1" fill="#2980B9"/>
<circle cx="45.5" cy="11.5" r="1" fill="#2980B9"/>
<circle cx="45.5" cy="53.5" r="1" fill="#2980B9"/>
<circle cx="87.5" cy="11.5" r="1" fill="#2980B9"/>
<circle cx="87.5" cy="53.5" r="1" fill="#2980B9"/>
<circle cx="30.5" cy="23.5" r="1" fill="#2980B9"/>
<circle cx="30.5" cy="65.5" r="1" fill="#2980B9"/>
<circle cx="72.5" cy="23.5" r="1" fill="#2980B9"/>
<circle cx="72.5" cy="65.5" r="1" fill="#2980B9"/>
<circle cx="30.5" cy="35.5" r="1" fill="#2980B9"/>
<circle cx="72.5" cy="35.5" r="1" fill="#2980B9"/>
<circle cx="45.5" cy="23.5" r="1" fill="#2980B9"/>
<circle cx="45.5" cy="65.5" r="1" fill="#2980B9"/>
<circle cx="87.5" cy="23.5" r="1" fill="#2980B9"/>
<circle cx="87.5" cy="65.5" r="1" fill="#2980B9"/>
<circle cx="45.5" cy="35.5" r="1" fill="#2980B9"/>
<circle cx="87.5" cy="35.5" r="1" fill="#2980B9"/>
<circle cx="9.5" cy="2.5" r="1" fill="#2980B9"/>
<circle cx="9.5" cy="44.5" r="1" fill="#2980B9"/>
<circle cx="51.5" cy="2.5" r="1" fill="#2980B9"/>
<circle cx="51.5" cy="44.5" r="1" fill="#2980B9"/>
<circle cx="21.5" cy="2.5" r="1" fill="#2980B9"/>
<circle cx="21.5" cy="44.5" r="1" fill="#2980B9"/>
<circle cx="63.5" cy="2.5" r="1" fill="#2980B9"/>
<circle cx="63.5" cy="44.5" r="1" fill="#2980B9"/>
<circle cx="33.5" cy="2.5" r="1" fill="#2980B9"/>
<circle cx="33.5" cy="44.5" r="1" fill="#2980B9"/>
<circle cx="75.5" cy="2.5" r="1" fill="#2980B9"/>
<circle cx="75.5" cy="44.5" r="1" fill="#2980B9"/>
<circle cx="48.5" cy="2.5" r="1" fill="#2980B9"/>
<circle cx="48.5" cy="44.5" r="1" fill="#2980B9"/>
<circle cx="90.5" cy="2.5" r="1" fill="#2980B9"/>
<circle cx="90.5" cy="44.5" r="1" fill="#2980B9"/>
<circle cx="9.5" cy="14.5" r="1" fill="#2980B9"/>
<circle cx="9.5" cy="56.5" r="1" fill="#2980B9"/>
<circle cx="51.5" cy="14.5" r="1" fill="#2980B9"/>
<circle cx="51.5" cy="56.5" r="1" fill="#2980B9"/>
<circle cx="9.5" cy="26.5" r="1" fill="#2980B9"/>
<circle cx="9.5" cy="68.5" r="1" fill="#2980B9"/>
<circle cx="51.5" cy="26.5" r="1" fill="#2980B9"/>
<circle cx="51.5" cy="68.5" r="1" fill="#2980B9"/>
<circle cx="9.5" cy="38.5" r="1" fill="#2980B9"/>
<circle cx="51.5" cy="38.5" r="1" fill="#2980B9"/>
<circle cx="21.5" cy="14.5" r="1" fill="#2980B9"/>
<circle cx="21.5" cy="56.5" r="1" fill="#2980B9"/>
<circle cx="63.5" cy="14.5" r="1" fill="#2980B9"/>
<circle cx="63.5" cy="56.5" r="1" fill="#2980B9"/>
<circle cx="21.5" cy="26.5" r="1" fill="#2980B9"/>
<circle cx="21.5" cy="68.5" r="1" fill="#2980B9"/>
<circle cx="63.5" cy="26.5" r="1" fill="#2980B9"/>
<circle cx="63.5" cy="68.5" r="1" fill="#2980B9"/>
<circle cx="21.5" cy="38.5" r="1" fill="#2980B9"/>
<circle cx="63.5" cy="38.5" r="1" fill="#2980B9"/>
<circle cx="33.5" cy="14.5" r="1" fill="#2980B9"/>
<circle cx="33.5" cy="56.5" r="1" fill="#2980B9"/>
<circle cx="75.5" cy="14.5" r="1" fill="#2980B9"/>
<circle cx="75.5" cy="56.5" r="1" fill="#2980B9"/>
<circle cx="48.5" cy="14.5" r="1" fill="#2980B9"/>
<circle cx="48.5" cy="56.5" r="1" fill="#2980B9"/>
<circle cx="90.5" cy="14.5" r="1" fill="#2980B9"/>
<circle cx="90.5" cy="56.5" r="1" fill="#2980B9"/>
<circle cx="33.5" cy="26.5" r="1" fill="#2980B9"/>
<circle cx="33.5" cy="68.5" r="1" fill="#2980B9"/>
<circle cx="75.5" cy="26.5" r="1" fill="#2980B9"/>
<circle cx="75.5" cy="68.5" r="1" fill="#2980B9"/>
<circle cx="33.5" cy="38.5" r="1" fill="#2980B9"/>
<circle cx="75.5" cy="38.5" r="1" fill="#2980B9"/>
<circle cx="48.5" cy="26.5" r="1" fill="#2980B9"/>
<circle cx="48.5" cy="68.5" r="1" fill="#2980B9"/>
<circle cx="90.5" cy="26.5" r="1" fill="#2980B9"/>
<circle cx="90.5" cy="68.5" r="1" fill="#2980B9"/>
<circle cx="48.5" cy="38.5" r="1" fill="#2980B9"/>
<circle cx="90.5" cy="38.5" r="1" fill="#2980B9"/>
<circle cx="15.5" cy="2.5" r="1" fill="#2980B9"/>
<circle cx="15.5" cy="44.5" r="1" fill="#2980B9"/>
<circle cx="57.5" cy="2.5" r="1" fill="#2980B9"/>
<circle cx="57.5" cy="44.5" r="1" fill="#2980B9"/>
<circle cx="27.5" cy="2.5" r="1" fill="#2980B9"/>
<circle cx="27.5" cy="44.5" r="1" fill="#2980B9"/>
<circle cx="69.5" cy="2.5" r="1" fill="#2980B9"/>
<circle cx="69.5" cy="44.5" r="1" fill="#2980B9"/>
<circle cx="42.5" cy="2.5" r="1" fill="#2980B9"/>
<circle cx="42.5" cy="44.5" r="1" fill="#2980B9"/>
<circle cx="84.5" cy="2.5" r="1" fill="#2980B9"/>
<circle cx="84.5" cy="44.5" r="1" fill="#2980B9"/>
<circle cx="15.5" cy="14.5" r="1" fill="#2980B9"/>
<circle cx="15.5" cy="56.5" r="1" fill="#2980B9"/>
<circle cx="57.5" cy="14.5" r="1" fill="#2980B9"/>
<circle cx="57.5" cy="56.5" r="1" fill="#2980B9"/>
<circle cx="15.5" cy="26.5" r="1" fill="#2980B9"/>
<circle cx="15.5" cy="68.5" r="1" fill="#2980B9"/>
<circle cx="57.5" cy="26.5" r="1" fill="#2980B9"/>
<circle cx="57.5" cy="68.5" r="1" fill="#2980B9"/>
<circle cx="15.5" cy="38.5" r="1" fill="#2980B9"/>
<circle cx="57.5" cy="38.5" r="1" fill="#2980B9"/>
<circle cx="27.5" cy="14.5" r="1" fill="#2980B9"/>
<circle cx="27.5" cy="56.5" r="1" fill="#2980B9"/>
<circle cx="69.5" cy="14.5" r="1" fill="#2980B9"/>
<circle cx="69.5" cy="56.5" r="1" fill="#2980B9"/>
<circle cx="42.5" cy="14.5" r="1" fill="#2980B9"/>
<circle cx="42.5" cy="56.5" r="1" fill="#2980B9"/>
<circle cx="84.5" cy="14.5" r="1" fill="#2980B9"/>
<circle cx="84.5" cy="56.5" r="1" fill="#2980B9"/>
<circle cx="27.5" cy="26.5" r="1" fill="#2980B9"/>
<circle cx="27.5" cy="68.5" r="1" fill="#2980B9"/>
<circle cx="69.5" cy="26.5" r="1" fill="#2980B9"/>
<circle cx="69.5" cy="68.5" r="1" fill="#2980B9"/>
<circle cx="27.5" cy="38.5" r="1" fill="#2980B9"/>
<circle cx="69.5" cy="38.5" r="1" fill="#2980B9"/>
<circle cx="42.5" cy="26.5" r="1" fill="#2980B9"/>
<circle cx="42.5" cy="68.5" r="1" fill="#2980B9"/>
<circle cx="84.5" cy="26.5" r="1" fill="#2980B9"/>
<circle cx="84.5" cy="68.5" r="1" fill="#2980B9"/>
<circle cx="42.5" cy="38.5" r="1" fill="#2980B9"/>
<circle cx="84.5" cy="38.5" r="1" fill="#2980B9"/>
<circle cx="12.5" cy="2.5" r="1" fill="#2980B9"/>
<circle cx="12.5" cy="44.5" r="1" fill="#2980B9"/>
<circle cx="54.5" cy="2.5" r="1" fill="#2980B9"/>
<circle cx="54.5" cy="44.5" r="1" fill="#2980B9"/>
<circle cx="24.5" cy="2.5" r="1" fill="#2980B9"/>
<circle cx="24.5" cy="44.5" r="1" fill="#2980B9"/>
<circle cx="66.5" cy="2.5" r="1" fill="#2980B9"/>
<circle cx="66.5" cy="44.5" r="1" fill="#2980B9"/>
<circle cx="39.5" cy="2.5" r="1" fill="#2980B9"/>
<circle cx="39.5" cy="44.5" r="1" fill="#2980B9"/>
<circle cx="81.5" cy="2.5" r="1" fill="#2980B9"/>
<circle cx="81.5" cy="44.5" r="1" fill="#2980B9"/>
<circle cx="36.5" cy="2.5" r="1" fill="#2980B9"/>
<circle cx="36.5" cy="44.5" r="1" fill="#2980B9"/>
<circle cx="78.5" cy="2.5" r="1" fill="#2980B9"/>
<circle cx="78.5" cy="44.5" r="1" fill="#2980B9"/>
<circle cx="12.5" cy="14.5" r="1" fill="#2980B9"/>
<circle cx="12.5" cy="56.5" r="1" fill="#2980B9"/>
<circle cx="54.5" cy="14.5" r="1" fill="#2980B9"/>
<circle cx="54.5" cy="56.5" r="1" fill="#2980B9"/>
<circle cx="12.5" cy="26.5" r="1" fill="#2980B9"/>
<circle cx="12.5" cy="68.5" r="1" fill="#2980B9"/>
<circle cx="54.5" cy="26.5" r="1" fill="#2980B9"/>
<circle cx="54.5" cy="68.5" r="1" fill="#2980B9"/>
<circle cx="12.5" cy="38.5" r="1" fill="#2980B9"/>
<circle cx="54.5" cy="38.5" r="1" fill="#2980B9"/>
<circle cx="24.5" cy="14.5" r="1" fill="#2980B9"/>
<circle cx="24.5" cy="56.5" r="1" fill="#2980B9"/>
<circle cx="66.5" cy="14.5" r="1" fill="#2980B9"/>
<circle cx="66.5" cy="56.5" r="1" fill="#2980B9"/>
<circle cx="39.5" cy="14.5" r="1" fill="#2980B9"/>
<circle cx="39.5" cy="56.5" r="1" fill="#2980B9"/>
<circle cx="81.5" cy="14.5" r="1" fill="#2980B9"/>
<circle cx="81.5" cy="56.5" r="1" fill="#2980B9"/>
<circle cx="24.5" cy="26.5" r="1" fill="#2980B9"/>
<circle cx="24.5" cy="68.5" r="1" fill="#2980B9"/>
<circle cx="66.5" cy="26.5" r="1" fill="#2980B9"/>
<circle cx="66.5" cy="68.5" r="1" fill="#2980B9"/>
<circle cx="24.5" cy="38.5" r="1" fill="#2980B9"/>
<circle cx="66.5" cy="38.5" r="1" fill="#2980B9"/>
<circle cx="39.5" cy="26.5" r="1" fill="#2980B9"/>
<circle cx="39.5" cy="68.5" r="1" fill="#2980B9"/>
<circle cx="81.5" cy="26.5" r="1" fill="#2980B9"/>
<circle cx="81.5" cy="68.5" r="1" fill="#2980B9"/>
<circle cx="39.5" cy="38.5" r="1" fill="#2980B9"/>
<circle cx="81.5" cy="38.5" r="1" fill="#2980B9"/>
<circle cx="36.5" cy="14.5" r="1" fill="#2980B9"/>
<circle cx="36.5" cy="56.5" r="1" fill="#2980B9"/>
<circle cx="78.5" cy="14.5" r="1" fill="#2980B9"/>
<circle cx="78.5" cy="56.5" r="1" fill="#2980B9"/>
<circle cx="36.5" cy="26.5" r="1" fill="#2980B9"/>
<circle cx="36.5" cy="68.5" r="1" fill="#2980B9"/>
<circle cx="78.5" cy="26.5" r="1" fill="#2980B9"/>
<circle cx="78.5" cy="68.5" r="1" fill="#2980B9"/>
<circle cx="36.5" cy="38.5" r="1" fill="#2980B9"/>
<circle cx="78.5" cy="38.5" r="1" fill="#2980B9"/>
<circle cx="18.5" cy="2.5" r="1" fill="#2980B9"/>
<circle cx="18.5" cy="44.5" r="1" fill="#2980B9"/>
<circle cx="60.5" cy="2.5" r="1" fill="#2980B9"/>
<circle cx="60.5" cy="44.5" r="1" fill="#2980B9"/>
<circle cx="30.5" cy="2.5" r="1" fill="#2980B9"/>
<circle cx="30.5" cy="44.5" r="1" fill="#2980B9"/>
<circle cx="72.5" cy="2.5" r="1" fill="#2980B9"/>
<circle cx="72.5" cy="44.5" r="1" fill="#2980B9"/>
<circle cx="45.5" cy="2.5" r="1" fill="#2980B9"/>
<circle cx="45.5" cy="44.5" r="1" fill="#2980B9"/>
<circle cx="87.5" cy="2.5" r="1" fill="#2980B9"/>
<circle cx="87.5" cy="44.5" r="1" fill="#2980B9"/>
<circle cx="18.5" cy="14.5" r="1" fill="#2980B9"/>
<circle cx="18.5" cy="56.5" r="1" fill="#2980B9"/>
<circle cx="60.5" cy="14.5" r="1" fill="#2980B9"/>
<circle cx="60.5" cy="56.5" r="1" fill="#2980B9"/>
<circle cx="18.5" cy="26.5" r="1" fill="#2980B9"/>
<circle cx="18.5" cy="68.5" r="1" fill="#2980B9"/>
<circle cx="60.5" cy="26.5" r="1" fill="#2980B9"/>
<circle cx="60.5" cy="68.5" r="1" fill="#2980B9"/>
<circle cx="18.5" cy="38.5" r="1" fill="#2980B9"/>
<circle cx="60.5" cy="38.5" r="1" fill="#2980B9"/>
<circle cx="30.5" cy="14.5" r="1" fill="#2980B9"/>
<circle cx="30.5" cy="56.5" r="1" fill="#2980B9"/>
<circle cx="72.5" cy="14.5" r="1" fill="#2980B9"/>
<circle cx="72.5" cy="56.5" r="1" fill="#2980B9"/>
<circle cx="45.5" cy="14.5" r="1" fill="#2980B9"/>
<circle cx="45.5" cy="56.5" r="1" fill="#2980B9"/>
<circle cx="87.5" cy="14.5" r="1" fill="#2980B9"/>
<circle cx="87.5" cy="56.5" r="1" fill="#2980B9"/>
<circle cx="30.5" cy="26.5" r="1" fill="#2980B9"/>
<circle cx="30.5" cy="68.5" r="1" fill="#2980B9"/>
<circle cx="72.5" cy="26.5" r="1" fill="#2980B9"/>
<circle cx="72.5" cy="68.5" r="1" fill="#2980B9"/>
<circle cx="30.5" cy="38.5" r="1" fill="#2980B9"/>
<circle cx="72.5" cy="38.5" r="1" fill="#2980B9"/>
<circle cx="45.5" cy="26.5" r="1" fill="#2980B9"/>
<circle cx="45.5" cy="68.5" r="1" fill="#2980B9"/>
<circle cx="87.5" cy="26.5" r="1" fill="#2980B9"/>
<circle cx="87.5" cy="68.5" r="1" fill="#2980B9"/>
<circle cx="45.5" cy="38.5" r="1" fill="#2980B9"/>
<circle cx="87.5" cy="38.5" r="1" fill="#2980B9"/>
<circle cx="9.5" cy="5.5" r="1" fill="#2980B9"/>
<circle cx="9.5" cy="47.5" r="1" fill="#2980B9"/>
<circle cx="51.5" cy="5.5" r="1" fill="#2980B9"/>
<circle cx="51.5" cy="47.5" r="1" fill="#2980B9"/>
<circle cx="9.5" cy="17.5" r="1" fill="#2980B9"/>
<circle cx="9.5" cy="59.5" r="1" fill="#2980B9"/>
<circle cx="51.5" cy="17.5" r="1" fill="#2980B9"/>
<circle cx="51.5" cy="59.5" r="1" fill="#2980B9"/>
<circle cx="9.5" cy="29.5" r="1" fill="#2980B9"/>
<circle cx="9.5" cy="71.5" r="1" fill="#2980B9"/>
<circle cx="51.5" cy="29.5" r="1" fill="#2980B9"/>
<circle cx="51.5" cy="71.5" r="1" fill="#2980B9"/>
<circle cx="21.5" cy="5.5" r="1" fill="#2980B9"/>
<circle cx="21.5" cy="47.5" r="1" fill="#2980B9"/>
<circle cx="63.5" cy="5.5" r="1" fill="#2980B9"/>
<circle cx="63.5" cy="47.5" r="1" fill="#2980B9"/>
<circle cx="21.5" cy="17.5" r="1" fill="#2980B9"/>
<circle cx="21.5" cy="59.5" r="1" fill="#2980B9"/>
<circle cx="63.5" cy="17.5" r="1" fill="#2980B9"/>
<circle cx="63.5" cy="59.5" r="1" fill="#2980B9"/>
<circle cx="21.5" cy="29.5" r="1" fill="#2980B9"/>
<circle cx="21.5" cy="71.5" r="1" fill="#2980B9"/>
<circle cx="63.5" cy="29.5" r="1" fill="#2980B9"/>
<circle cx="63.5" cy="71.5" r="1" fill="#2980B9"/>
<circle cx="33.5" cy="5.5" r="1" fill="#2980B9"/>
<circle cx="33.5" cy="47.5" r="1" fill="#2980B9"/>
<circle cx="75.5" cy="5.5" r="1" fill="#2980B9"/>
<circle cx="75.5" cy="47.5" r="1" fill="#2980B9"/>
<circle cx="48.5" cy="5.5" r="1" fill="#2980B9"/>
<circle cx="48.5" cy="47.5" r="1" fill="#2980B9"/>
<circle cx="90.5" cy="5.5" r="1" fill="#2980B9"/>
<circle cx="90.5" cy="47.5" r="1" fill="#2980B9"/>
<circle cx="33.5" cy="17.5" r="1" fill="#2980B9"/>
<circle cx="33.5" cy="59.5" r="1" fill="#2980B9"/>
<circle cx="75.5" cy="17.5" r="1" fill="#2980B9"/>
<circle cx="75.5" cy="59.5" r="1" fill="#2980B9"/>
<circle cx="33.5" cy="29.5" r="1" fill="#2980B9"/>
<circle cx="33.5" cy="71.5" r="1" fill="#2980B9"/>
<circle cx="75.5" cy="29.5" r="1" fill="#2980B9"/>
<circle cx="75.5" cy="71.5" r="1" fill="#2980B9"/>
<circle cx="48.5" cy="17.5" r="1" fill="#2980B9"/>
<circle cx="48.5" cy="59.5" r="1" fill="#2980B9"/>
<circle cx="90.5" cy="17.5" r="1" fill="#2980B9"/>
<circle cx="90.5" cy="59.5" r="1" fill="#2980B9"/>
<circle cx="48.5" cy="29.5" r="1" fill="#2980B9"/>
<circle cx="48.5" cy="71.5" r="1" fill="#2980B9"/>
<circle cx="90.5" cy="29.5" r="1" fill="#2980B9"/>
<circle cx="90.5" cy="71.5" r="1" fill="#2980B9"/>
<circle cx="15.5" cy="5.5" r="1" fill="#2980B9"/>
<circle cx="15.5" cy="47.5" r="1" fill="#2980B9"/>
<circle cx="57.5" cy="5.5" r="1" fill="#2980B9"/>
<circle cx="57.5" cy="47.5" r="1" fill="#2980B9"/>
<circle cx="15.5" cy="17.5" r="1" fill="#2980B9"/>
<circle cx="15.5" cy="59.5" r="1" fill="#2980B9"/>
<circle cx="57.5" cy="17.5" r="1" fill="#2980B9"/>
<circle cx="57.5" cy="59.5" r="1" fill="#2980B9"/>
<circle cx="15.5" cy="29.5" r="1" fill="#2980B9"/>
<circle cx="15.5" cy="71.5" r="1" fill="#2980B9"/>
<circle cx="57.5" cy="29.5" r="1" fill="#2980B9"/>
<circle cx="57.5" cy="71.5" r="1" fill="#2980B9"/>
<circle cx="27.5" cy="5.5" r="1" fill="#2980B9"/>
<circle cx="27.5" cy="47.5" r="1" fill="#2980B9"/>
<circle cx="69.5" cy="5.5" r="1" fill="#2980B9"/>
<circle cx="69.5" cy="47.5" r="1" fill="#2980B9"/>
<circle cx="42.5" cy="5.5" r="1" fill="#2980B9"/>
<circle cx="42.5" cy="47.5" r="1" fill="#2980B9"/>
<circle cx="84.5" cy="5.5" r="1" fill="#2980B9"/>
<circle cx="84.5" cy="47.5" r="1" fill="#2980B9"/>
<circle cx="27.5" cy="17.5" r="1" fill="#2980B9"/>
<circle cx="27.5" cy="59.5" r="1" fill="#2980B9"/>
<circle cx="69.5" cy="17.5" r="1" fill="#2980B9"/>
<circle cx="69.5" cy="59.5" r="1" fill="#2980B9"/>
<circle cx="27.5" cy="29.5" r="1" fill="#2980B9"/>
<circle cx="27.5" cy="71.5" r="1" fill="#2980B9"/>
<circle cx="69.5" cy="29.5" r="1" fill="#2980B9"/>
<circle cx="69.5" cy="71.5" r="1" fill="#2980B9"/>
<circle cx="42.5" cy="17.5" r="1" fill="#2980B9"/>
<circle cx="42.5" cy="59.5" r="1" fill="#2980B9"/>
<circle cx="84.5" cy="17.5" r="1" fill="#2980B9"/>
<circle cx="84.5" cy="59.5" r="1" fill="#2980B9"/>
<circle cx="42.5" cy="29.5" r="1" fill="#2980B9"/>
<circle cx="42.5" cy="71.5" r="1" fill="#2980B9"/>
<circle cx="84.5" cy="29.5" r="1" fill="#2980B9"/>
<circle cx="84.5" cy="71.5" r="1" fill="#2980B9"/>
<circle cx="12.5" cy="5.5" r="1" fill="#2980B9"/>
<circle cx="12.5" cy="47.5" r="1" fill="#2980B9"/>
<circle cx="54.5" cy="5.5" r="1" fill="#2980B9"/>
<circle cx="54.5" cy="47.5" r="1" fill="#2980B9"/>
<circle cx="12.5" cy="17.5" r="1" fill="#2980B9"/>
<circle cx="12.5" cy="59.5" r="1" fill="#2980B9"/>
<circle cx="54.5" cy="17.5" r="1" fill="#2980B9"/>
<circle cx="54.5" cy="59.5" r="1" fill="#2980B9"/>
<circle cx="12.5" cy="29.5" r="1" fill="#2980B9"/>
<circle cx="12.5" cy="71.5" r="1" fill="#2980B9"/>
<circle cx="54.5" cy="29.5" r="1" fill="#2980B9"/>
<circle cx="54.5" cy="71.5" r="1" fill="#2980B9"/>
<circle cx="24.5" cy="5.5" r="1" fill="#2980B9"/>
<circle cx="24.5" cy="47.5" r="1" fill="#2980B9"/>
<circle cx="66.5" cy="5.5" r="1" fill="#2980B9"/>
<circle cx="66.5" cy="47.5" r="1" fill="#2980B9"/>
<circle cx="39.5" cy="5.5" r="1" fill="#2980B9"/>
<circle cx="39.5" cy="47.5" r="1" fill="#2980B9"/>
<circle cx="81.5" cy="5.5" r="1" fill="#2980B9"/>
<circle cx="81.5" cy="47.5" r="1" fill="#2980B9"/>
<circle cx="24.5" cy="17.5" r="1" fill="#2980B9"/>
<circle cx="24.5" cy="59.5" r="1" fill="#2980B9"/>
<circle cx="66.5" cy="17.5" r="1" fill="#2980B9"/>
<circle cx="66.5" cy="59.5" r="1" fill="#2980B9"/>
<circle cx="24.5" cy="29.5" r="1" fill="#2980B9"/>
<circle cx="24.5" cy="71.5" r="1" fill="#2980B9"/>
<circle cx="66.5" cy="29.5" r="1" fill="#2980B9"/>
<circle cx="66.5" cy="71.5" r="1" fill="#2980B9"/>
<circle cx="39.5" cy="17.5" r="1" fill="#2980B9"/>
<circle cx="39.5" cy="59.5" r="1" fill="#2980B9"/>
<circle cx="81.5" cy="17.5" r="1" fill="#2980B9"/>
<circle cx="81.5" cy="59.5" r="1" fill="#2980B9"/>
<circle cx="39.5" cy="29.5" r="1" fill="#2980B9"/>
<circle cx="39.5" cy="71.5" r="1" fill="#2980B9"/>
<circle cx="81.5" cy="29.5" r="1" fill="#2980B9"/>
<circle cx="81.5" cy="71.5" r="1" fill="#2980B9"/>
<circle cx="36.5" cy="5.5" r="1" fill="#2980B9"/>
<circle cx="36.5" cy="47.5" r="1" fill="#2980B9"/>
<circle cx="78.5" cy="5.5" r="1" fill="#2980B9"/>
<circle cx="78.5" cy="47.5" r="1" fill="#2980B9"/>
<circle cx="36.5" cy="17.5" r="1" fill="#2980B9"/>
<circle cx="36.5" cy="59.5" r="1" fill="#2980B9"/>
<circle cx="78.5" cy="17.5" r="1" fill="#2980B9"/>
<circle cx="78.5" cy="59.5" r="1" fill="#2980B9"/>
<circle cx="36.5" cy="29.5" r="1" fill="#2980B9"/>
<circle cx="36.5" cy="71.5" r="1" fill="#2980B9"/>
<circle cx="78.5" cy="29.5" r="1" fill="#2980B9"/>
<circle cx="78.5" cy="71.5" r="1" fill="#2980B9"/>
<circle cx="18.5" cy="5.5" r="1" fill="#2980B9"/>
<circle cx="18.5" cy="47.5" r="1" fill="#2980B9"/>
<circle cx="60.5" cy="5.5" r="1" fill="#2980B9"/>
<circle cx="60.5" cy="47.5" r="1" fill="#2980B9"/>
<circle cx="18.5" cy="17.5" r="1" fill="#2980B9"/>
<circle cx="18.5" cy="59.5" r="1" fill="#2980B9"/>
<circle cx="60.5" cy="17.5" r="1" fill="#2980B9"/>
<circle cx="60.5" cy="59.5" r="1" fill="#2980B9"/>
<circle cx="18.5" cy="29.5" r="1" fill="#2980B9"/>
<circle cx="18.5" cy="71.5" r="1" fill="#2980B9"/>
<circle cx="60.5" cy="29.5" r="1" fill="#2980B9"/>
<circle cx="60.5" cy="71.5" r="1" fill="#2980B9"/>
<circle cx="30.5" cy="5.5" r="1" fill="#2980B9"/>
<circle cx="30.5" cy="47.5" r="1" fill="#2980B9"/>
<circle cx="72.5" cy="5.5" r="1" fill="#2980B9"/>
<circle cx="72.5" cy="47.5" r="1" fill="#2980B9"/>
<circle cx="45.5" cy="5.5" r="1" fill="#2980B9"/>
<circle cx="45.5" cy="47.5" r="1" fill="#2980B9"/>
<circle cx="87.5" cy="5.5" r="1" fill="#2980B9"/>
<circle cx="87.5" cy="47.5" r="1" fill="#2980B9"/>
<circle cx="30.5" cy="17.5" r="1" fill="#2980B9"/>
<circle cx="30.5" cy="59.5" r="1" fill="#2980B9"/>
<circle cx="72.5" cy="17.5" r="1" fill="#2980B9"/>
<circle cx="72.5" cy="59.5" r="1" fill="#2980B9"/>
<circle cx="30.5" cy="29.5" r="1" fill="#2980B9"/>
<circle cx="30.5" cy="71.5" r="1" fill="#2980B9"/>
<circle cx="72.5" cy="29.5" r="1" fill="#2980B9"/>
<circle cx="72.5" cy="71.5" r="1" fill="#2980B9"/>
<circle cx="45.5" cy="17.5" r="1" fill="#2980B9"/>
<circle cx="45.5" cy="59.5" r="1" fill="#2980B9"/>
<circle cx="87.5" cy="17.5" r="1" fill="#2980B9"/>
<circle cx="87.5" cy="59.5" r="1" fill="#2980B9"/>
<circle cx="45.5" cy="29.5" r="1" fill="#2980B9"/>
<circle cx="45.5" cy="71.5" r="1" fill="#2980B9"/>
<circle cx="87.5" cy="29.5" r="1" fill="#2980B9"/>
<circle cx="87.5" cy="71.5" r="1" fill="#2980B9"/>
<circle cx="9.5" cy="8.5" r="1" fill="#2980B9"/>
<circle cx="9.5" cy="50.5" r="1" fill="#2980B9"/>
<circle cx="51.5" cy="8.5" r="1" fill="#2980B9"/>
<circle cx="51.5" cy="50.5" r="1" fill="#2980B9"/>
<circle cx="9.5" cy="20.5" r="1" fill="#2980B9"/>
<circle cx="9.5" cy="62.5" r="1" fill="#2980B9"/>
<circle cx="51.5" cy="20.5" r="1" fill="#2980B9"/>
<circle cx="51.5" cy="62.5" r="1" fill="#2980B9"/>
<circle cx="9.5" cy="32.5" r="1" fill="#2980B9"/>
<circle cx="9.5" cy="74.5" r="1" fill="#2980B9"/>
<circle cx="51.5" cy="32.5" r="1" fill="#2980B9"/>
<circle cx="51.5" cy="74.5" r="1" fill="#2980B9"/>
<circle cx="21.5" cy="8.5" r="1" fill="#2980B9"/>
<circle cx="21.5" cy="50.5" r="1" fill="#2980B9"/>
<circle cx="63.5" cy="8.5" r="1" fill="#2980B9"/>
<circle cx="63.5" cy="50.5" r="1" fill="#2980B9"/>
<circle cx="21.5" cy="20.5" r="1" fill="#2980B9"/>
<circle cx="21.5" cy="62.5" r="1" fill="#2980B9"/>
<circle cx="63.5" cy="20.5" r="1" fill="#2980B9"/>
<circle cx="63.5" cy="62.5" r="1" fill="#2980B9"/>
<circle cx="21.5" cy="32.5" r="1" fill="#2980B9"/>
<circle cx="21.5" cy="74.5" r="1" fill="#2980B9"/>
<circle cx="63.5" cy="32.5" r="1" fill="#2980B9"/>
<circle cx="63.5" cy="74.5" r="1" fill="#2980B9"/>
<circle cx="33.5" cy="8.5" r="1" fill="#2980B9"/>
<circle cx="33.5" cy="50.5" r="1" fill="#2980B9"/>
<circle cx="75.5" cy="8.5" r="1" fill="#2980B9"/>
<circle cx="75.5" cy="50.5" r="1" fill="#2980B9"/>
<circle cx="48.5" cy="8.5" r="1" fill="#2980B9"/>
<circle cx="48.5" cy="50.5" r="1" fill="#2980B9"/>
<circle cx="90.5" cy="8.5" r="1" fill="#2980B9"/>
<circle cx="90.5" cy="50.5" r="1" fill="#2980B9"/>
<circle cx="33.5" cy="20.5" r="1" fill="#2980B9"/>
<circle cx="33.5" cy="62.5" r="1" fill="#2980B9"/>
<circle cx="75.5" cy="20.5" r="1" fill="#2980B9"/>
<circle cx="75.5" cy="62.5" r="1" fill="#2980B9"/>
<circle cx="33.5" cy="32.5" r="1" fill="#2980B9"/>
<circle cx="33.5" cy="74.5" r="1" fill="#2980B9"/>
<circle cx="75.5" cy="32.5" r="1" fill="#2980B9"/>
<circle cx="75.5" cy="74.5" r="1" fill="#2980B9"/>
<circle cx="48.5" cy="20.5" r="1" fill="#2980B9"/>
<circle cx="48.5" cy="62.5" r="1" fill="#2980B9"/>
<circle cx="90.5" cy="20.5" r="1" fill="#2980B9"/>
<circle cx="90.5" cy="62.5" r="1" fill="#2980B9"/>
<circle cx="48.5" cy="32.5" r="1" fill="#2980B9"/>
<circle cx="48.5" cy="74.5" r="1" fill="#2980B9"/>
<circle cx="90.5" cy="32.5" r="1" fill="#2980B9"/>
<circle cx="90.5" cy="74.5" r="1" fill="#2980B9"/>
<circle cx="15.5" cy="8.5" r="1" fill="#2980B9"/>
<circle cx="15.5" cy="50.5" r="1" fill="#2980B9"/>
<circle cx="57.5" cy="8.5" r="1" fill="#2980B9"/>
<circle cx="57.5" cy="50.5" r="1" fill="#2980B9"/>
<circle cx="15.5" cy="20.5" r="1" fill="#2980B9"/>
<circle cx="15.5" cy="62.5" r="1" fill="#2980B9"/>
<circle cx="57.5" cy="20.5" r="1" fill="#2980B9"/>
<circle cx="57.5" cy="62.5" r="1" fill="#2980B9"/>
<circle cx="15.5" cy="32.5" r="1" fill="#2980B9"/>
<circle cx="15.5" cy="74.5" r="1" fill="#2980B9"/>
<circle cx="57.5" cy="32.5" r="1" fill="#2980B9"/>
<circle cx="57.5" cy="74.5" r="1" fill="#2980B9"/>
<circle cx="27.5" cy="8.5" r="1" fill="#2980B9"/>
<circle cx="27.5" cy="50.5" r="1" fill="#2980B9"/>
<circle cx="69.5" cy="8.5" r="1" fill="#2980B9"/>
<circle cx="69.5" cy="50.5" r="1" fill="#2980B9"/>
<circle cx="42.5" cy="8.5" r="1" fill="#2980B9"/>
<circle cx="42.5" cy="50.5" r="1" fill="#2980B9"/>
<circle cx="84.5" cy="8.5" r="1" fill="#2980B9"/>
<circle cx="84.5" cy="50.5" r="1" fill="#2980B9"/>
<circle cx="27.5" cy="20.5" r="1" fill="#2980B9"/>
<circle cx="27.5" cy="62.5" r="1" fill="#2980B9"/>
<circle cx="69.5" cy="20.5" r="1" fill="#2980B9"/>
<circle cx="69.5" cy="62.5" r="1" fill="#2980B9"/>
<circle cx="27.5" cy="32.5" r="1" fill="#2980B9"/>
<circle cx="27.5" cy="74.5" r="1" fill="#2980B9"/>
<circle cx="69.5" cy="32.5" r="1" fill="#2980B9"/>
<circle cx="69.5" cy="74.5" r="1" fill="#2980B9"/>
<circle cx="42.5" cy="20.5" r="1" fill="#2980B9"/>
<circle cx="42.5" cy="62.5" r="1" fill="#2980B9"/>
<circle cx="84.5" cy="20.5" r="1" fill="#2980B9"/>
<circle cx="84.5" cy="62.5" r="1" fill="#2980B9"/>
<circle cx="42.5" cy="32.5" r="1" fill="#2980B9"/>
<circle cx="42.5" cy="74.5" r="1" fill="#2980B9"/>
<circle cx="84.5" cy="32.5" r="1" fill="#2980B9"/>
<circle cx="84.5" cy="74.5" r="1" fill="#2980B9"/>
<circle cx="12.5" cy="8.5" r="1" fill="#2980B9"/>
<circle cx="12.5" cy="50.5" r="1" fill="#2980B9"/>
<circle cx="54.5" cy="8.5" r="1" fill="#2980B9"/>
<circle cx="54.5" cy="50.5" r="1" fill="#2980B9"/>
<circle cx="12.5" cy="20.5" r="1" fill="#2980B9"/>
<circle cx="12.5" cy="62.5" r="1" fill="#2980B9"/>
<circle cx="54.5" cy="20.5" r="1" fill="#2980B9"/>
<circle cx="54.5" cy="62.5" r="1" fill="#2980B9"/>
<circle cx="12.5" cy="32.5" r="1" fill="#2980B9"/>
<circle cx="12.5" cy="74.5" r="1" fill="#2980B9"/>
<circle cx="54.5" cy="32.5" r="1" fill="#2980B9"/>
<circle cx="54.5" cy="74.5" r="1" fill="#2980B9"/>
<circle cx="24.5" cy="8.5" r="1" fill="#2980B9"/>
<circle cx="24.5" cy="50.5" r="1" fill="#2980B9"/>
<circle cx="66.5" cy="8.5" r="1" fill="#2980B9"/>
<circle cx="66.5" cy="50.5" r="1" fill="#2980B9"/>
<circle cx="39.5" cy="8.5" r="1" fill="#2980B9"/>
<circle cx="39.5" cy="50.5" r="1" fill="#2980B9"/>
<circle cx="81.5" cy="8.5" r="1" fill="#2980B9"/>
<circle cx="81.5" cy="50.5" r="1" fill="#2980B9"/>
<circle cx="24.5" cy="20.5" r="1" fill="#2980B9"/>
<circle cx="24.5" cy="62.5" r="1" fill="#2980B9"/>
<circle cx="66.5" cy="20.5" r="1" fill="#2980B9"/>
<circle cx="66.5" cy="62.5" r="1" fill="#2980B9"/>
<circle cx="24.5" cy="32.5" r="1" fill="#2980B9"/>
<circle cx="24.5" cy="74.5" r="1" fill="#2980B9"/>
<circle cx="66.5" cy="32.5" r="1" fill="#2980B9"/>
<circle cx="66.5" cy="74.5" r="1" fill="#2980B9"/>
<circle cx="39.5" cy="20.5" r="1" fill="#2980B9"/>
<circle cx="39.5" cy="62.5" r="1" fill="#2980B9"/>
<circle cx="81.5" cy="20.5" r="1" fill="#2980B9"/>
<circle cx="81.5" cy="62.5" r="1" fill="#2980B9"/>
<circle cx="39.5" cy="32.5" r="1" fill="#2980B9"/>
<circle cx="39.5" cy="74.5" r="1" fill="#2980B9"/>
<circle cx="81.5" cy="32.5" r="1" fill="#2980B9"/>
<circle cx="81.5" cy="74.5" r="1" fill="#2980B9"/>
<circle cx="36.5" cy="8.5" r="1" fill="#2980B9"/>
<circle cx="36.5" cy="50.5" r="1" fill="#2980B9"/>
<circle cx="78.5" cy="8.5" r="1" fill="#2980B9"/>
<circle cx="78.5" cy="50.5" r="1" fill="#2980B9"/>
<circle cx="36.5" cy="20.5" r="1" fill="#2980B9"/>
<circle cx="36.5" cy="62.5" r="1" fill="#2980B9"/>
<circle cx="78.5" cy="20.5" r="1" fill="#2980B9"/>
<circle cx="78.5" cy="62.5" r="1" fill="#2980B9"/>
<circle cx="36.5" cy="32.5" r="1" fill="#2980B9"/>
<circle cx="36.5" cy="74.5" r="1" fill="#2980B9"/>
<circle cx="78.5" cy="32.5" r="1" fill="#2980B9"/>
<circle cx="78.5" cy="74.5" r="1" fill="#2980B9"/>
<circle cx="18.5" cy="8.5" r="1" fill="#2980B9"/>
<circle cx="18.5" cy="50.5" r="1" fill="#2980B9"/>
<circle cx="60.5" cy="8.5" r="1" fill="#2980B9"/>
<circle cx="60.5" cy="50.5" r="1" fill="#2980B9"/>
<circle cx="18.5" cy="20.5" r="1" fill="#2980B9"/>
<circle cx="18.5" cy="62.5" r="1" fill="#2980B9"/>
<circle cx="60.5" cy="20.5" r="1" fill="#2980B9"/>
<circle cx="60.5" cy="62.5" r="1" fill="#2980B9"/>
<circle cx="18.5" cy="32.5" r="1" fill="#2980B9"/>
<circle cx="18.5" cy="74.5" r="1" fill="#2980B9"/>
<circle cx="60.5" cy="32.5" r="1" fill="#2980B9"/>
<circle cx="60.5" cy="74.5" r="1" fill="#2980B9"/>
<circle cx="30.5" cy="8.5" r="1" fill="#2980B9"/>
<circle cx="30.5" cy="50.5" r="1" fill="#2980B9"/>
<circle cx="72.5" cy="8.5" r="1" fill="#2980B9"/>
<circle cx="72.5" cy="50.5" r="1" fill="#2980B9"/>
<circle cx="45.5" cy="8.5" r="1" fill="#2980B9"/>
<circle cx="45.5" cy="50.5" r="1" fill="#2980B9"/>
<circle cx="87.5" cy="8.5" r="1" fill="#2980B9"/>
<circle cx="87.5" cy="50.5" r="1" fill="#2980B9"/>
<circle cx="30.5" cy="20.5" r="1" fill="#2980B9"/>
<circle cx="30.5" cy="62.5" r="1" fill="#2980B9"/>
<circle cx="72.5" cy="20.5" r="1" fill="#2980B9"/>
<circle cx="72.5" cy="62.5" r="1" fill="#2980B9"/>
<circle cx="30.5" cy="32.5" r="1" fill="#2980B9"/>
<circle cx="30.5" cy="74.5" r="1" fill="#2980B9"/>
<circle cx="72.5" cy="32.5" r="1" fill="#2980B9"/>
<circle cx="72.5" cy="74.5" r="1" fill="#2980B9"/>
<circle cx="45.5" cy="20.5" r="1" fill="#2980B9"/>
<circle cx="45.5" cy="62.5" r="1" fill="#2980B9"/>
<circle cx="87.5" cy="20.5" r="1" fill="#2980B9"/>
<circle cx="87.5" cy="62.5" r="1" fill="#2980B9"/>
<circle cx="45.5" cy="32.5" r="1" fill="#2980B9"/>
<circle cx="45.5" cy="74.5" r="1" fill="#2980B9"/>
<circle cx="87.5" cy="32.5" r="1" fill="#2980B9"/>
<circle cx="87.5" cy="74.5" r="1" fill="#2980B9"/>
</g>
</svg>
